<?xml version="1.0" encoding="utf-8"?>
<!-- Generator: Adobe Illustrator 22.0.1, SVG Export Plug-In . SVG Version: 6.00 Build 0)  -->
<svg version="1.1" id="Calque_1" xmlns="http://www.w3.org/2000/svg" xmlns:xlink="http://www.w3.org/1999/xlink" x="0px" y="0px"
	 viewBox="0 0 100 100" style="enable-background:new 0 0 100 100;" xml:space="preserve">
<style type="text/css">
	.st0{fill:#FFFFFF;stroke:#000000;stroke-width:4;stroke-miterlimit:10;}
</style>
<g>
	<title></title>
	<g id="svg_1_1_" transform="translate(0,1024) scale(0.10000000149011612,-0.10000000149011612) ">
		<path id="svg_2_1_" class="st0" d="M471.3,10217.4c-61.7-3.6-123-19.6-178.4-46.3c-134.7-64.8-231.9-189.6-261.6-335.8
			c-20.9-102.5-7.4-209.6,38-303.3c65-134.5,189.5-231.3,335.4-260.8c102.5-20.9,209.6-7.4,303.3,38
			c96.8,46.8,176.2,126.1,222.9,222.9c22.3,46.1,37,95.4,43.4,146c12.1,92.7-3,186.4-43.4,269.8c-46.8,96.8-126.1,176.2-222.9,222.9
			C634.6,10206.3,552.8,10222.4,471.3,10217.4z M666.4,9957.1l-0.3-52.1l-50.7-0.5c-57.3-0.7-53.9,0-60-9.7
			c-6.3-10-6.7-13.5-6.7-54.5V9803h59h59v-49.1v-49.1h-59h-59V9558v-146.7h-56.8H435V9558v146.7h-50.7h-50.7v49.1v49.1h50.7H435
			v35.4c0,38.5,1.1,50.4,6.2,67.9c13.9,47.9,50.9,86.4,94.6,97.9c15.9,4.3,22.7,4.7,78.9,4.9l52,0.1L666.4,9957.1z"/>
	</g>
</g>
</svg>
