<?xml version="1.0" encoding="utf-8"?>
<!-- Generator: Adobe Illustrator 22.0.1, SVG Export Plug-In . SVG Version: 6.00 Build 0)  -->
<svg version="1.1" id="Calque_1" xmlns="http://www.w3.org/2000/svg" xmlns:xlink="http://www.w3.org/1999/xlink" x="0px" y="0px"
	 viewBox="0 0 528.8 250" style="enable-background:new 0 0 528.8 250;" xml:space="preserve">
<style type="text/css">
	.st0{opacity:0.2;fill:#231F20;}
	.st1{opacity:0.3;fill:#231F20;}
</style>
<g>
	<defs>
		<path id="SVGID_1_" d="M442.5,0h-41.9h-101H148.7H142l0,0c0,0,4.2,38.2,21,52.4s37.6,28.3,43.9,53.5s12.3,57.4,35.4,64.7
			c23.1,7.3,90.1,3.7,116.8,38.9c28.6,37.7,82.2,52.4,162.5,28.3c2.5-0.7,4.9-1.5,7.2-2.3v-6.3V25.8V0H442.5z"/>
	</defs>
	<clipPath id="SVGID_2_">
		<use xlink:href="#SVGID_1_"  style="overflow:visible;"/>
	</clipPath>
	<g transform="matrix(1 0 0 1 0 0)" style="clip-path:url(#SVGID_2_);">
		
			<image style="overflow:visible;" width="1240" height="800" xlink:href="FCC27092.png"  transform="matrix(0.3119 0 0 0.3119 142.044 0)">
		</image>
	</g>
</g>
<path class="st0" d="M442.5,0h-41.9h-101H148.7l0,0c0,0,4.7,29.9,21.5,44.1s35.7,23.1,42,48.3c6.3,25.2,12.1,61.4,35.1,68.7
	c23.1,7.3,83.4,3.1,113.8,35.1c30.4,32,80.2,59.3,160.5,35.1c2.5-0.7,4.9-1.5,7.2-2.3V25.8V0H442.5z"/>
<path class="st0" d="M339.8,22.2c22.7,1.6,42.6-13,60.8-22.2h-101C308.1,10.6,321.1,20.8,339.8,22.2z"/>
<path class="st1" d="M442.5,0c27.7,20.7,33.2,32.8,66.4,27.6c8.7-1.4,15.1-1.8,19.8-1.7V0H442.5z"/>
</svg>
