<?xml version="1.0" encoding="utf-8"?>
<!-- Generator: Adobe Illustrator 22.0.1, SVG Export Plug-In . SVG Version: 6.00 Build 0)  -->
<svg version="1.1" id="Calque_1" xmlns="http://www.w3.org/2000/svg" xmlns:xlink="http://www.w3.org/1999/xlink" x="0px" y="0px"
	 viewBox="0 0 281.8 335" style="enable-background:new 0 0 281.8 335;" xml:space="preserve">
<style type="text/css">
	.st0{fill:#F8BF93;}
	.st1{fill:#F8B133;}
	.st2{fill:#5E3814;}
	.st3{fill:#936755;}
	.st4{fill:#E4E4E4;}
	.st5{fill:#BD1622;}
	.st6{fill:#FFFFFF;}
	.st7{fill:#C59B6B;}
	.st8{fill:none;}
	.st9{fill:#CDCBCB;}
	.st10{fill:#558C93;}
	.st11{fill:none;stroke:#F8B133;stroke-width:0.7232;stroke-miterlimit:10;}
	.st12{fill:#868686;}
	.st13{filter:url(#Adobe_OpacityMaskFilter);}
	.st14{opacity:0.35;mask:url(#SVGID_1_);}
	.st15{fill:#854430;}
	.st16{fill:#D9E1CF;}
	.st17{fill:#507578;}
	.st18{fill:#568C93;}
	.st19{fill:#425E60;}
	.st20{fill:#C5C9BD;}
	.st21{fill:#FAFCFB;}
	.st22{fill:#578C91;}
	.st23{fill:#64382F;}
	.st24{fill:#4E2B25;}
	.st25{fill:#7D4334;}
	.st26{fill:#553029;}
	.st27{fill:#58919C;}
	.st28{fill:#4B7276;}
	.st29{fill:#4A757B;}
	.st30{fill:#5C8C93;}
	.st31{fill:#486B71;}
	.st32{fill:#4D2A21;}
	.st33{fill:#7C4132;}
	.st34{opacity:0.37;fill:#FAFCFB;}
	.st35{fill:#3F585A;}
	.st36{fill:#4A7278;}
	.st37{opacity:0.19;fill:#568C93;}
	.st38{fill:#929A89;}
	.st39{fill:#3C5946;}
	.st40{fill:#7CC1C2;}
	.st41{fill:#ECE321;}
	.st42{fill:#D92728;}
	.st43{fill:#151B19;}
	.st44{opacity:0.9;fill:#1D1D1B;}
	.st45{fill:#4A747A;}
	.st46{fill:#588C93;}
	.st47{fill:#588A8F;}
	.st48{fill:#9CB5AD;}
	.st49{fill:#4A5962;}
	.st50{fill:#5D687B;}
	.st51{fill:#E5332A;}
	.st52{fill:#E31926;}
	.st53{fill:#1D1D1B;}
	.st54{fill:#5E3128;}
	.st55{fill:#A9B8A6;}
	.st56{fill:#D6E6C8;}
	.st57{opacity:0.21;fill:#1D1D1B;}
	.st58{opacity:0.21;}
</style>
<path class="st0" d="M92.1,229.4c0,0,4.1,0.8,10.4-2.8c6.3-3.6,11.7-3.3,11.7-3.3s6.2,0.7,5.9-2.8c-0.3-3.4-0.7-8,5.5-12.5
	c6.2-4.6,21.3-10.4,24.7-26.4c0,0,6.8-1,10.1,0c3.3,1,25.4-0.4,25.4-0.4v-22.4c0,0-20.7,2.6-31.7,6.7s-11.4,0.8-13.3,6
	c0,0-7.7,16.1-20.5,28C107.4,211.5,92.1,229.4,92.1,229.4z"/>
<path class="st0" d="M146,120.6c0,0,9.2-0.7,12,0c2.8,0.7,12.5,0.8,12.5,0.8s6.8-0.7,10.3,0.6c3.4,1.2,11.5,1.6,11.5,1.6
	s8.5-7.4,13.4-7.8c0,0-5-2.6-7.6-2.7c-2.6-0.1-6.1,2.1-8.5,2.1c-2.4,0-5.9-1-8.2-1.5c-1.2-0.2-5,0.7-6.3,0.6
	c-1.4-0.2-4.8-1.3-6.1-1.2c-3.3,0.1-10.7,1.9-14.2,2c-3.5,0.1-5.3,0-7.3-2.8c-2-2.8-4.6,6.7-3.3,7.4
	C145.5,120.3,146,120.6,146,120.6z"/>
<path class="st1" d="M223.8,88.9c0,0,1.1-7.1,7.4-6.7c10.4,0.6,8.3,15.5,5.2,22.6c-3.1,7.1,2.2,19.8,11.5,15.7c0,0-1.9,6.4-9,6.9
	c-2.8,0.2-6.1-1.1-8.6-6.9c-2.5-5.7-3.3-12.5-0.6-19c1.9-4.5,2.9-9.9-3.5-8.5"/>
<g>
	<g>
		<polygon class="st2" points="196.9,20.1 196.9,20.1 196.9,20.1 		"/>
		<polygon class="st2" points="161,222 161,222 161,222 		"/>
		<path class="st3" d="M146.8,116c10.7-41.9,20.8-60.8,49.4-95.2l0.1-0.4c-5.5,3.7-49.2,35.2-57.4,95.6
			c-8.1,60.1,18.1,100.3,21.7,105.4l0.1-0.3C157.7,213.3,136.8,155.3,146.8,116z"/>
		<path class="st3" d="M160.7,221.1c0.2,0.6,0.3,0.9,0.3,0.9l35.9-201.9c-0.2,0.3-0.4,0.5-0.6,0.8L160.7,221.1z"/>
		<path class="st2" d="M160.7,221.1l-0.1,0.3c0.2,0.4,0.4,0.5,0.4,0.6l0,0C161,222,160.9,221.7,160.7,221.1z"/>
		<path class="st2" d="M196.9,20.1L196.9,20.1c0,0-0.2,0.1-0.6,0.4l-0.1,0.4C196.5,20.6,196.7,20.3,196.9,20.1z"/>
	</g>
</g>
<path class="st0" d="M138.4,112.3c0,0,1.5,0.8,3.1,1c1.7,0.2,1-1.8-0.1-2.2c-0.9-0.3-1.8-1.2-2.5-1
	C138.4,110.4,137.6,111.3,138.4,112.3z"/>
<path class="st0" d="M137.5,114.3c0,0,1.4,1.1,3.1,1c2.5-0.1,2.1-1.8-0.1-2.2c-1.2-0.2-1.8-1.2-2.5-1
	C137.4,112.3,136.6,113.2,137.5,114.3z"/>
<path class="st0" d="M137.9,114.5c0,0,2.5,0.4,3.4,1.3c1,0.9,0.1,1.6-0.5,1.7c-0.6,0-3.1-0.8-3.4-1.5
	C137.1,115.3,137.4,114.4,137.9,114.5z"/>
<path class="st0" d="M147.7,112.6c0,0-0.6-1.8-1.8-2.9c-1.2-1.1-2.2,0.5-1.6,1.1c0.9,1,1.8,2.9,2.1,3.7c0.4,1.2-0.5,6.1-0.5,6.1
	L147.7,112.6z"/>
<g>
	<path class="st0" d="M208.3,86.3c-3,2-5.1,4.7-4.7,7.5c0.5,4,0.7,7.7-0.5,9.4c0,0,0,0.9,1.3,0.9c1.3,0.1,2.7,4,2.1,5.8
		c-0.5,1.8,3.9,1.4,6.3,0.7c0,0,0.1,0,0.1,0C216.4,97.3,210,88.4,208.3,86.3z"/>
	<path class="st4" d="M227.2,89.4c-3.8-5.1-9.4-7.3-14.4-5.4c-1.6,0.6-3.1,1.4-4.5,2.3c1.7,2.1,8.1,10.9,4.6,24.3
		c0.6,0.2-0.7,5.1-0.7,5.1s4.6,6.2,12.3,0.6c0,0-3.8-2-3.5-6.3c0.3-4.3,1.6-6.8,3.5-8.2C226.4,100.5,231,94.5,227.2,89.4z"/>
</g>
<path class="st5" d="M203.4,102.4c0,0,1.5-2.5,1.8-4.1c0.2-1.6,0.9-3.4,2.4-3.5c1.5-0.1,3.1-1.3,4-1.9c0,0-1.7,1.4-2.2,2.1
	c-0.4,0.7,0,2.5-1.3,3.7s-2.3,0-3.1,1.5C204.1,101.8,203.4,102.4,203.4,102.4z"/>
<g>
	<polygon class="st6" points="207.5,96.4 207.4,96.7 206.7,97.7 206.4,98 206.6,98 206.7,98.2 206.8,97.9 206.8,97.9 207.5,96.9 
		207.8,96.6 207.6,96.6 	"/>
	<polygon class="st6" points="206.2,96.9 206.5,97 207.5,97.7 207.8,98 207.8,97.8 208,97.7 207.7,97.6 207.7,97.6 206.7,96.9 
		206.4,96.6 206.4,96.8 	"/>
</g>
<g>
	<path class="st3" d="M243.3,72c-0.1,5.6,3.8,9.2,3.8,9.2l-0.3,3c0,0-3.5-3.4-4-9.3C242.9,73.9,243.1,72.8,243.3,72z"/>
	<path class="st3" d="M244,66.3c0,0,0.1,5,3.8,9.1l-0.4,3.3C247.4,78.7,242.2,73.3,244,66.3z"/>
	<path class="st7" d="M243.3,72c0,0-0.2-3.2,0.7-5.7c-1.8,7.1,3.4,12.4,3.4,12.4l-0.3,2.5C247.1,81.2,243.3,77.6,243.3,72z"/>
	<path class="st3" d="M246.5,86.8l-0.4,3.4c0,0-5.2-5.3-3.5-12.4C242.6,77.8,242.6,82.5,246.5,86.8z"/>
	<path class="st7" d="M246.8,84.2l-0.3,2.5c-3.9-4.2-3.8-9-3.8-9s0-1.4,0.2-2.8C243.3,80.8,246.8,84.2,246.8,84.2z"/>
</g>
<g>
	<path class="st3" d="M252.9,73.1c-1.2,5.5-5.8,8.1-5.8,8.1l-0.3,3c0,0,4.2-2.5,6-8.2C252.9,75,253,73.9,252.9,73.1z"/>
	<path class="st3" d="M253.5,67.4c0,0-1.2,4.9-5.7,8l-0.4,3.3C247.4,78.7,253.6,74.6,253.5,67.4z"/>
	<path class="st7" d="M252.9,73.1c0,0,0.9-3.1,0.6-5.7c0.1,7.3-6.1,11.3-6.1,11.3l-0.3,2.5C247.1,81.2,251.7,78.5,252.9,73.1z"/>
	<path class="st3" d="M246.5,86.8l-0.4,3.4c0,0,6.2-4,6.1-11.3C252.2,78.8,251.2,83.5,246.5,86.8z"/>
	<path class="st7" d="M246.8,84.2l-0.3,2.5c4.7-3.3,5.8-7.9,5.8-7.9s0.3-1.3,0.5-2.8C250.9,81.7,246.8,84.2,246.8,84.2z"/>
</g>
<g>
	<path class="st8" d="M246.2,112.8c-0.3-0.8-1.1-0.9-2.2-0.6l-0.2,1.6C245.4,113.7,246.6,113.8,246.2,112.8z"/>
	<path class="st8" d="M250.2,130.9c2.1,0.7,2.5-15.1,0-15c-1.6,0.1-4.3-0.3-6.6-0.2l-0.9,8.3C245.6,127.1,249.1,130.6,250.2,130.9z"
		/>
	<path class="st0" d="M236.7,112.3c-0.7,0.7-0.4,1.2-0.4,1.2s0.2,0.9,3.5,0c1.3-0.3,2.4-0.8,3.4-1.1l0.5-4.9
		C241.5,109.1,237.2,111.8,236.7,112.3z"/>
	<path class="st0" d="M257,126.9c-0.7-2.6-1.2-10.4-1.2-10.4c-0.1-3.2-1.6-4.8-1.6-4.8s-2.8-2.4-5.1-4.6c-2.3-2.1-4-0.5-4-0.5
		s-0.2,0.1-0.5,0.3l-0.6,5.2c1.1-0.3,1.9-0.2,2.2,0.6c0.4,1-0.8,0.9-2.3,1l-0.2,2c2.2-0.1,4.9,0.3,6.6,0.2c2.5-0.2,2.1,15.6,0,15
		c-1.1-0.4-4.6-3.8-7.5-6.8l-1.5,13.3c6.1,3.7,13.9,5.1,15.4,4.3C258.7,140.4,257.7,129.5,257,126.9z"/>
	<path class="st0" d="M238.2,119.2l-9.9,6.8c0,0,1.9-1.2,7.1,6.2c1.2,1.8,3,3.3,5,4.6l1.5-13.6C239.8,121,238.2,119.2,238.2,119.2z"
		/>
	<path class="st0" d="M240.9,114.4c-2.1,1.3-0.2,2-0.2,2c0.5-0.3,1.2-0.5,2.1-0.6l0.2-2C242.3,113.9,241.5,114,240.9,114.4z"/>
	<path class="st3" d="M243.7,112.3c0,0-0.1,0-0.1,0l-0.2,1.4c0,0,0.1,0,0.1,0L243.7,112.3z"/>
	<path class="st3" d="M249,65.3l-0.1,0l-4.7,42c0,0,0.1-0.1,0.1-0.1L249,65.3z"/>
	<path class="st3" d="M243.2,115.8l-0.9,7.9c0,0,0.1,0.1,0.1,0.1l0.9-8C243.2,115.8,243.2,115.8,243.2,115.8z"/>
	<path class="st3" d="M234.6,191.5l0.1,0l6.1-54.4c0,0-0.1,0-0.1-0.1L234.6,191.5z"/>
	<path class="st3" d="M243.5,113.8c0,0-0.1,0-0.1,0l-0.2,2c0,0,0.1,0,0.1,0L243.5,113.8z"/>
	<path class="st0" d="M244.2,107.2c0,0-0.1,0.1-0.1,0.1l-0.6,5c0,0,0.1,0,0.1,0L244.2,107.2z"/>
	<path class="st3" d="M240.7,137.1c0,0,0.1,0,0.1,0.1l1.5-13.4c0,0-0.1-0.1-0.1-0.1L240.7,137.1z"/>
	<path class="st3" d="M248.8,65.3l0.1,0l-4.7,41.9c0.1-0.1,0.3-0.2,0.4-0.3l4.7-41.6c0-0.1,0-0.2-0.1-0.2c-0.1-0.1-0.1-0.1-0.2-0.1
		l-0.2,0c-0.1,0-0.2,0-0.2,0.1c-0.1,0.1-0.1,0.1-0.1,0.2l-4.8,42.3c0.1-0.1,0.3-0.2,0.4-0.3L248.8,65.3z"/>
	<path class="st3" d="M243.2,115.8c-0.1,0-0.2,0-0.4,0l-0.8,7.5c0.1,0.1,0.2,0.2,0.3,0.3L243.2,115.8z"/>
	<path class="st3" d="M243.5,113.8c0.1,0,0.2,0,0.4,0l0.2-1.6c-0.1,0-0.2,0.1-0.4,0.1L243.5,113.8z"/>
	<path class="st3" d="M243.5,112.3c-0.1,0-0.3,0.1-0.4,0.1l-0.2,1.4c0.1,0,0.2,0,0.4,0L243.5,112.3z"/>
	<path class="st3" d="M242.4,123.7c0.1,0.1,0.2,0.2,0.3,0.3l0.9-8.3c-0.1,0-0.2,0-0.4,0L242.4,123.7z"/>
	<path class="st3" d="M234.7,191.5l-0.1,0l6.2-54.5c-0.1-0.1-0.2-0.1-0.3-0.2l-6.2,54.7c0,0.1,0,0.2,0.1,0.2
		c0.1,0.1,0.1,0.1,0.2,0.1l0.2,0c0,0,0,0,0,0c0.2,0,0.3-0.1,0.3-0.3l6.1-54.3c-0.1-0.1-0.2-0.1-0.3-0.2L234.7,191.5z"/>
	<path class="st3" d="M242.3,123.6c-0.1-0.1-0.2-0.2-0.3-0.3l-1.5,13.6c0.1,0.1,0.2,0.2,0.3,0.2L242.3,123.6z"/>
	<path class="st3" d="M242.4,123.7l-1.5,13.4c0.1,0.1,0.2,0.1,0.3,0.2l1.5-13.3C242.6,124,242.5,123.9,242.4,123.7z"/>
	<path class="st3" d="M243.4,113.8c-0.1,0-0.2,0-0.4,0l-0.2,2c0.1,0,0.2,0,0.4,0L243.4,113.8z"/>
	<path class="st0" d="M244.1,107.3c-0.1,0.1-0.3,0.2-0.4,0.3l-0.5,4.9c0.1,0,0.3-0.1,0.4-0.1L244.1,107.3z"/>
	<path class="st3" d="M243.3,115.7c0.1,0,0.2,0,0.4,0l0.2-2c-0.1,0-0.2,0-0.4,0L243.3,115.7z"/>
	<path class="st0" d="M243.7,112.3c0.1,0,0.3-0.1,0.4-0.1l0.6-5.2c-0.1,0.1-0.2,0.2-0.4,0.3L243.7,112.3z"/>
</g>
<g>
	<path class="st9" d="M209.1,151.1L209.1,151.1c8-9.4,25.3-20.3,25.3-20.3s-2.2-10.8,4.6-10.8c0,0-1.9-4.8-9.3-3.2
		c-2.4,0.5-5.2-0.6-5.2-0.6c-6.9,4.2-12.3-0.6-12.3-0.6c-5.1,0.7-9.8-1.3-9.8-1.3s-6.9,4.3-10.1,9.3c-3.2,5,0.6,11,0.6,11
		c0.5,2-2.3,5.3-4.1,9.5C194.2,152.4,209.1,151.1,209.1,151.1z"/>
	<path class="st10" d="M264.6,224.1c-11.1-2.3-37.6-19.1-43.5-23.9c-5.7-4.6-19.2-33.2-15.1-44.3c0,0,0,0,0,0
		c-13.7,0-18.6-5.8-18.6-5.8l0,0c-0.5,1.6-1.6,3.1-5,5.3c-6.7,4.2-5.4,38.9-0.3,57.5c5,18.6,23.4,19.7,42.6,20.5
		c19.3,0.8,46.6-6.3,46.6-6.3C270.6,225.2,264.6,224.1,264.6,224.1z"/>
	<path class="st5" d="M206,155.9C206,155.9,206,155.9,206,155.9c0.2-0.5,0.4-1,0.7-1.5c0.6-1,1.5-2.1,2.4-3.2l0,0
		c0,0-14.8,1.3-20.3-7c-0.1,0.2-0.1,0.3-0.2,0.5c-0.9,2.2-0.8,3.8-1.3,5.3l0,0C187.3,150,192.3,155.9,206,155.9z"/>
</g>
<path class="st11" d="M239,185.8"/>
<path class="st11" d="M239,184.9"/>
<g>
	<polygon class="st5" points="212,136 208.8,135.4 199.8,131.4 197.2,129.4 197.8,131.8 195.7,132.9 198.9,133.5 198.9,133.5 
		207.9,137.5 210.4,139.5 209.8,137.1 	"/>
	<polygon class="st5" points="206.5,124.7 205.5,128.5 200.5,139.6 198.3,143 200.5,141.9 201.1,144.2 202.2,140.3 202.2,140.4 
		207.2,129.2 209.3,125.9 207.2,127 	"/>
</g>
<g>
	<g>
		<path class="st12" d="M234.4,187.9l1.5,0.2c0,0,0.1,0,0.1,0.1l-0.2,1.6c0,0,0,0.1,0.1,0.1l0.9,0.1c0,0,0.1,0,0.1,0.1l-1.2,4.1
			l0.7,0.1l-2.9,9.5c0,0.1-0.1,0.1-0.1,0l-0.6-9.9l0.7,0.1l-0.2-4.3c0,0,0-0.1,0.1-0.1l0.9,0.1c0,0,0.1,0,0.1-0.1L234.4,187.9
			C234.3,187.9,234.3,187.8,234.4,187.9z"/>
	</g>
	<defs>
		<filter id="Adobe_OpacityMaskFilter" filterUnits="userSpaceOnUse" x="232.6" y="187.9" width="4.1" height="15.9">
			
				<feColorMatrix  type="matrix" values="-1 0 0 0 1  0 -1 0 0 1  0 0 -1 0 1  0 0 0 1 0" color-interpolation-filters="sRGB" result="source"/>
		</filter>
	</defs>
	<mask maskUnits="userSpaceOnUse" x="232.6" y="187.9" width="4.1" height="15.9" id="SVGID_1_">
		<g class="st13">
			<image style="overflow:visible;" width="9" height="21" xlink:href="7142F2D7.jpg"  transform="matrix(1 0 0 1 229.8333 185)">
			</image>
		</g>
	</mask>
	<g class="st14">
		<path d="M234.4,187.9l1.5,0.2c0,0,0.1,0,0.1,0.1l-0.2,1.6c0,0,0,0.1,0.1,0.1l0.9,0.1c0,0,0.1,0,0.1,0.1l-1.2,4.1l0.7,0.1l-2.9,9.5
			c0,0.1-0.1,0.1-0.1,0l-0.6-9.9l0.7,0.1l-0.2-4.3c0,0,0-0.1,0.1-0.1l0.9,0.1c0,0,0.1,0,0.1-0.1L234.4,187.9
			C234.3,187.9,234.3,187.8,234.4,187.9z"/>
	</g>
</g>
<g>
	<polygon class="st15" points="133.6,52.7 118.2,45.3 115.9,50 131.4,57.4 132.6,54.9 	"/>
	<path class="st15" d="M136.6,55.5c-0.4-1.5-3-2.7-3-2.7l-2.3,4.7c3.5,1.7,4.3,0.6,4.3,0.6S137,57,136.6,55.5z"/>
</g>
<g>
	<path class="st8" d="M60.8,271.1c0-0.1,0-0.1,0-0.1C60.8,271,60.7,271,60.8,271.1z"/>
	<path class="st6" d="M111.2,199.5c-4.5,14.4-34.4,27.6-34.4,27.6l-2.2,11.2c-15,15-19.6,51.9-19.6,51.9c0.5-1.8,2.7-5.9,5.9-11.2
		c1.3-2.2,2.8-4.6,4.5-7.2c4.1-6.4,9.1-13.8,14.3-21.1c5.5-7.6,11.2-15,16.6-21.2c17.7-20.5,17.7-30.2,17.7-30.2
		C113.1,199.4,112.2,199.4,111.2,199.5z M60.8,271c0,0.1,0,0.1,0,0.1C60.7,271,60.8,271,60.8,271z"/>
	<path class="st16" d="M76.8,227.1c-11.5,8.2-38,37.8-38,37.8c6.8,2.6,4.8,3.4,5.5,8.4c0.7,5,10.7,16.9,10.7,16.9
		s4.7-36.9,19.6-51.9L76.8,227.1z"/>
</g>
<path class="st17" d="M162.5,235.2c-0.1-1.8-0.8-7.3-4.6-11.3c-4.9,6.4-7,13.9-6.8,16.5c0.2,2.7-1.8,10-1.8,10c0.3,0,0.5,0,0.8,0
	c7.8-0.1,11.6-2.5,11.6-2.5S162.6,237.1,162.5,235.2z"/>
<g>
	<path class="st6" d="M126.2,197.4c-1.3,0.4-2.9,0.8-4.9,1.1c0.4,1.5,1.2,3.3,2.5,4.5c2.6,2.3,4.7,2.5,8.9,2.4
		c4.2-0.1,12.8,4.1,12.8,4.1l0,0c0,0-7.1-8.8-10.2-10.4c-2.3-1.1-3.5-3.5-4-4.7C130.7,195.3,129.3,196.4,126.2,197.4z"/>
	<path class="st18" d="M60.8,271c0,0-0.1,0.1,0,0.1C60.8,271.1,60.8,271,60.8,271z"/>
</g>
<path class="st19" d="M155.7,62.1"/>
<g>
	<g>
		<path class="st20" d="M123.3,172.1c-2.6,1.2-6.8,2.3-12.2,0.7c-2-0.6-4.1-1.5-6.4-2.9c-13.1-8.2-19-34.6-27.9-35.3
			c-8.9-0.6-11.9,13.3-11.9,13.3c-0.1,1-0.1,1.6-0.1,1.6l11.7,25.4c0,0,3.4,0.9,8.4,1.8c8,1.5,20.2,3.3,28.7,2.2
			c8.1-1.1,11.2-3.5,12.3-6.8c0.2-0.6,0.3-1.2,0.4-1.8C126.3,170.3,125.3,171.2,123.3,172.1z"/>
	</g>
	<path class="st21" d="M71.8,166.6c-0.1,0-0.1,0-0.2,0c-1.6,0-3.1,0.1-4.6,0.2c0,0,0,0,0,0l0,0c-38.5,2.8-52.4,25.3-52.4,25.3
		c0.9,2.7,2,5.2,3.2,7.6c7.4,2.2,37.4,10.2,62.6,0.3c3.5-18.9,6.6-32.9,6.6-32.9C81.6,166.6,76.6,166.5,71.8,166.6z"/>
	<g>
		<path class="st19" d="M74.6,137.3c-3.4,1.2-10.2,6.2-13.4,26.6l0,0c2.9-0.4,5.8-0.7,8.5-0.9c0.3-10.9,5.6-22.8,7.1-25.9
			C76.1,137,75.3,137,74.6,137.3z"/>
		<path class="st22" d="M78.2,137.6c-0.4-0.3-0.9-0.4-1.4-0.5c-1.5,3.1-6.7,14.9-7.1,25.9c5.4-0.4,10.2-0.4,14-0.4l0,0
			C83.7,162.6,87.6,143.4,78.2,137.6z"/>
	</g>
</g>
<g>
	<path class="st8" d="M76.8,166.6c-3.4,0-6.7,0.1-9.8,0.3c-38.5,2.8-52.4,25.3-52.4,25.3c14.4,41,60,41.9,60,41.9
		c4.9-33.6,12.4-67,12.4-67C83.5,166.8,80.1,166.6,76.8,166.6z"/>
	<path class="st23" d="M83.7,162.6c-5.7-0.1-13.7,0-22.4,1.3c-18.1,2.5-39.4,9.6-50,28c0,0,5.9,41.6,66.7,47.4
		c-0.1-0.9,0.6-6,1.8-13.4c0.8-5.3,1.9-11.9,3.3-19.1h0l0,0c0.2-0.9,0.3-1.9,0.5-2.8c0.6-3.3,1.3-6.7,2-10.2
		c0.3-1.3,0.5-2.6,0.8-3.9c1.8-9,3.9-18.3,6-26.7C92.3,163.1,89,162.7,83.7,162.6z M74.7,234.1c0,0-45.7-0.9-60-41.9
		c0,0,13.9-22.5,52.4-25.3c3.1-0.2,6.3-0.3,9.8-0.3c3.3,0,6.7,0.2,10.3,0.6C87,167.1,79.6,200.5,74.7,234.1z"/>
	<path class="st24" d="M101.1,199.5C101.1,199.5,101.1,199.5,101.1,199.5c-8.5-0.4-13.4-1.6-13.4-1.6s0,0-0.1-0.1
		c-0.5,2.4-0.9,4.8-1.3,7.1C87.1,204.7,91.1,204,101.1,199.5z"/>
	<path class="st16" d="M108.9,199.6c-2.4,0.1-4.6,0-6.6,0c-0.4,0-0.8,0-1.2,0c0,0,0,0,0,0c-10,4.5-13.9,5.2-14.9,5.4
		c-0.1,0.6-0.2,1.3-0.3,1.9c-1.2,6.6-2.1,12.4-2.9,17.3c9-4.7,25-14.4,28.2-24.6C110.4,199.5,109.7,199.6,108.9,199.6z"/>
	<polygon class="st19" points="83,206.7 83,206.7 83,206.7 	"/>
</g>
<g>
	<path class="st8" d="M129.9,186.8C129.8,186.9,129.8,186.9,129.9,186.8C129.8,186.9,129.9,186.8,129.9,186.8z"/>
	<path class="st25" d="M129.9,186.8C129.9,186.8,129.8,186.9,129.9,186.8c-0.4,0.6-3.2,3.6-16.9,4.5c-0.7,0-1.4,0.1-2.1,0
		c-3.4-0.1-13.9-0.5-21.2-1.7c-0.1,0-0.3,0-0.4-0.1c-0.1,0.6-0.2,1.2-0.4,1.8c-0.4,1.8-0.7,3.6-1.1,5.4c-0.1,0.4-0.1,0.7-0.2,1.1
		c0,0.1,0.1,0.1,0.1,0.1s5,1.2,13.5,1.6c0.4,0,0.8,0,1.2,0c2,0.1,4.2,0.1,6.6,0c0.8,0,1.5,0,2.3-0.1c0.9,0,1.9-0.1,2.9-0.2
		c0.3,0,0.7,0,1-0.1c0.5,0,0.9-0.1,1.3-0.1c1.9-0.2,3.5-0.4,4.9-0.6c2-0.3,3.6-0.7,4.9-1.1c3.1-1,4.4-2.1,5-3
		c0.5-0.7,0.4-1.3,0.4-1.5C131.7,192.1,132.6,187.1,129.9,186.8z"/>
	<path class="st26" d="M92.3,163.1c-1.2,4.6-2.3,9.4-3.4,14.4c-0.5,2.1-0.9,4.3-1.4,6.5c-0.2,0.9-0.4,1.8-0.6,2.8
		c-0.2,0.9-0.4,1.9-0.6,2.8c0,0.1,0,0.2-0.1,0.3c-0.3,1.3-0.5,2.6-0.8,3.9c-0.7,3.5-1.3,6.9-2,10.2c-0.2,0.9-0.3,1.9-0.5,2.8
		c0,0,0,0,0,0c-1.3,7.2-2.4,13.7-3.3,19.1c-1.2,7.5-1.8,12.5-1.8,13.4c1,0.1,2.1,0.2,3.2,0.3c-0.2-0.1,0.4-5.9,1.8-15.4
		c0.7-4.9,1.7-10.7,2.9-17.3c0.1-0.6,0.2-1.3,0.3-1.9c0.4-2.3,0.9-4.6,1.3-7.1c0.1-0.4,0.1-0.7,0.2-1.1c0.3-1.8,0.7-3.5,1.1-5.4
		c0.1-0.6,0.2-1.2,0.4-1.8c0.4-1.7,0.7-3.4,1.1-5.2c0.2-0.9,0.4-1.8,0.6-2.7c0.3-1.3,0.6-2.5,0.8-3.8c0.8-3.4,1.6-7,2.5-10.5
		L92.3,163.1z"/>
</g>
<g>
	<path class="st27" d="M130.1,175.1c-0.8-2.3-3.1-2.9-4.2-3c-1.1,3.3-4.2,5.7-12.3,6.8c-6.3,0.9-14.6,0.1-21.8-1
		c-0.3,1.3-0.6,2.5-0.8,3.8C91,181.7,125.9,186.1,130.1,175.1z"/>
	<path class="st28" d="M130.1,175.1c-4.2,10.9-39.2,6.6-39.2,6.6c-0.2,0.9-0.4,1.8-0.6,2.7c4.1,0.6,9,0.9,15,0.9
		c14.4-0.1,21.2-2.4,23.8-5.3c1.1-1.2,1.4-2.5,1.3-3.7C130.3,175.8,130.2,175.4,130.1,175.1z"/>
</g>
<g>
	<path class="st29" d="M89.8,186.9c-0.2,0.9-0.4,1.8-0.6,2.7c0.1,0,0.3,0,0.4,0.1c7.3,1.3,17.8,1.6,21.2,1.7c0.7,0,1.4,0,2.1,0
		c13.7-0.8,16.5-3.9,16.9-4.4c0,0,0,0,0.1-0.1c0.6-1.2,0.7-2.3,0.5-3.5C121.5,191.6,89.9,186.9,89.8,186.9z"/>
	<path class="st30" d="M105.3,185.3c-5.9,0-10.9-0.4-15-0.9c-0.2,0.9-0.4,1.7-0.5,2.6c0.1,0,31.7,4.7,40.6-3.5
		c-0.2-1.3-0.8-2.6-1.3-3.4C126.5,182.8,119.8,185.2,105.3,185.3z"/>
</g>
<g>
	<path class="st18" d="M130.8,71.8c-2.5,0.6-5.2,0.6-7.5,0.4c0.2,3.5,0.8,17.5-0.4,21.4c-1.3,4.4-1.4,9.6,0.9,10.3
		c1.7,0.5,4-1.8,5.1-3.8c0.1-0.4,0.2-0.8,0.3-1.2C130.6,91,130.8,77.4,130.8,71.8z"/>
	<path class="st31" d="M123.9,103.9c-2.3-0.7-2.2-5.9-0.9-10.3c1.2-3.8,0.5-17.9,0.4-21.4c-0.2,0-0.4,0-0.6,0
		c-2.6-0.3-4.8-0.9-5.9-1.2c-0.6,3.2-2.3,11.4-2.9,14.6c3.2,1.9,4.5,4.3,4.5,4.3l-1,36.3c1.4-2.4,9.5-16.8,11.6-26.1
		C127.8,102.1,125.6,104.4,123.9,103.9z"/>
</g>
<g>
	<path class="st32" d="M132.4,51.9c0-0.1-0.1-0.1-0.1-0.1c-0.5,0.5-1.6,1.6-2.6,1.1c-1.1-0.6,0.1-3.3,0.5-4.2c0-0.1,0-0.1-0.1-0.1
		c-0.5,0.3-1.8,1.3-3.5,0.4c-1.5-0.7-1.1-2.3-0.8-2.9c0,0,0-0.1-0.1,0c-0.6,0.8-2.8,3.1-4.3,0.7c-0.2,0.4-0.6,1-1.4,1.6
		c7,0.4,8.2,2.8,8.6,4.1c0.4,1.3-2.3,1.2-3.4,1c-1.1-0.2-1.9,0.5-1,1.2c0.9,0.6,6.5,3.2,6.8,3.4c0.1-0.1,0.2-0.2,0.3-0.2
		c0.6-0.3,1.7-0.8,2.7-1.7C133.5,56.1,131.3,55.7,132.4,51.9z"/>
	<path class="st32" d="M118.2,56.1c0,0-1.4-0.6-2-2c0,0.2,0.1,0.4,0.2,0.5c0.4,0.9,3.5,5-0.1,15.2c-0.2,0.5,0.1,1,0.5,1.1
		c0,0,0,0,0.1,0c1.2,0.3,3.3,0.9,5.9,1.2c0.1-1.2,0.2-2.2,0.2-3.2C123.3,58.4,118.2,56.1,118.2,56.1z"/>
	<path class="st33" d="M133.3,70.1c-0.9-2-3.1-7.7-2.5-11.7c0-0.2,0.1-0.3,0.2-0.4c-0.4-0.2-6-2.7-6.8-3.4c-0.9-0.7-0.1-1.4,1-1.2
		c1.1,0.2,3.7,0.2,3.4-1c-0.4-1.3-1.5-3.7-8.6-4.1c-0.4,0.3-0.9,0.6-1.5,0.8c-2.4,0.9-2.5,3.6-2.3,4.9c0.6,1.4,2,2,2,2
		s5.2,2.3,4.8,12.8c0,1-0.1,2.1-0.2,3.2c2.5,0.3,5.3,0.3,8.1-0.3c0.7-0.2,1.3-0.3,2-0.6C133.3,71.1,133.5,70.6,133.3,70.1z"/>
	<path class="st33" d="M133.1,51.4c0,0,0.8-3.5-2.2-3.3c0,0,0-3.4-3.1-2.9c-0.3,0.1-0.6,0-0.8-0.3c-0.9-1.1-3.4-3.7-5.5,1.5
		c0,0,0,0.2-0.2,0.5c1.5,2.3,3.7,0,4.3-0.7c0,0,0.1,0,0.1,0c-0.2,0.6-0.7,2.2,0.8,2.9c1.7,0.8,3-0.1,3.5-0.4c0.1,0,0.1,0,0.1,0.1
		c-0.4,0.9-1.6,3.6-0.5,4.2c1,0.6,2.2-0.5,2.6-1.1c0.1-0.1,0.1,0,0.1,0.1c-1.1,3.8,1.1,4.1,1.6,4.2c0.9-0.8,1.6-1.9,1.7-3.3
		C135.8,49.3,133.1,51.4,133.1,51.4z"/>
	<path class="st22" d="M115.5,128.4c-0.5-1.2-0.8-1.9-0.8-1.9l-31-5.8c0,0-0.7,0.8-1.8,1.8c4.6,0.8,21,3.7,31.3,6.8L115.5,128.4z"/>
	<path class="st34" d="M105.8,132.3c0,0-3.4-0.6-9.1-1.3c3.5,1.7,7.5,3.8,12.2,6.6c0,0,4.5-3.7,8-5c-0.2-0.9-0.5-1.7-0.7-2.4
		c-0.9-0.3-1.9-0.6-2.9-0.9L105.8,132.3z"/>
	<path class="st34" d="M116.1,130.3c-0.2-0.7-0.5-1.3-0.7-1.9l-2.3,0.9C114.3,129.7,115.2,130,116.1,130.3z"/>
	<path class="st22" d="M96.7,131c-11.6-5.6-16.7-5.6-18.7-5.2c-1,0.7-2,1.4-2.9,1.9c-3.9,2-4.2,5.1-4.2,5.1c0,0,0.1-0.1,0.1-0.1
		c2.1-1.8,4.9-3,8.7-2.9C86.4,130,92.3,130.5,96.7,131z"/>
	<path class="st34" d="M81.5,130.4c5,1.2,8.2,4.6,13.2,8.4c5.4,4.1,13.6,10.4,18.9,7.9c1.2-0.6,2-1.4,2.5-2.1
		c2.5-2.7,1.9-7.8,0.8-11.9c-3.5,1.2-8,5-8,5c-4.7-2.8-8.7-4.9-12.2-6.6c-4.5-0.5-10.3-1-17-1.2c-3.8-0.1-6.6,1.1-8.7,2.9
		c0.9-0.7,2.3-1.8,4.3-2.3C76.1,130.2,78.4,129.6,81.5,130.4z"/>
</g>
<path class="st33" d="M152.8,252.1c-9.4,1.3-10.9-1.2-11.5,7.9c-0.6,9.1,3.3,21.5,1.9,24.5c-1.4,3-4.1,5.2-3.3,8.7
	c0.9,3.5,1.8,5.5,9.2,7s13.1,2.5,16.7,0.4c3.6-2.1,4.7-2,7.2-2c0-0.1,0-0.2,0-0.2c0,0-0.4-2.1-4.2-3.2c-3.8-1.2-10.8-3.9-10.9-6.1
	c-0.1-1.6,0.1-2.3-0.7-2.7c-0.9-0.4-1.3-1.5-0.9-2.4c0.1-0.3,0.3-0.6,0.5-0.9c0.4-0.6,0.6-1.3,0.5-2c-0.2-1.3-0.7-3.3-1.4-5
	c-1.2-2.6,2.1-5.2,2.2-6.6c0.1-1.3,0.1-6.6,1.3-10c1.2-3.3,3.7-9.2,3.7-10.5C162.9,249.1,162.3,250.9,152.8,252.1z"/>
<path class="st23" d="M67.5,325.5c-3.1-3.2,0.4-3.2-1.9-6.1c-2.3-2.9-1.3-4.7,1-7.2c2.2-2.6,2.9-2.6-0.1-4.7
	c-2.9-2.1-3.5-11.4-2.3-16.3c1-4,2.2-15.2,2.6-19.2c-0.5,0-0.9-0.1-1.4-0.1c-1.6,2.6-3.1,5-4.5,7.2c0.4,22.3-0.4,32.1-0.8,33.3
	c-0.4,1.3,0.4,3.8,0.8,4.2c0.4,0.4,0.4,1.8,0.1,3.3c-0.3,1.5,0.1,3.4,0.6,3.6c0.5,0.2,3.2,3.6,3.8,6c0.5,2.4,3,3.1,9.6,2.5
	c6.6-0.5,9.9-2.7,10.5-4.3c0.1-0.4,0.2-0.8,0.1-1.3C76.9,327,71,329.1,67.5,325.5z"/>
<g>
	<path class="st8" d="M143.2,208.5c1.4,0.6,2.3,1,2.3,1S144.9,209.1,143.2,208.5z"/>
	<path class="st35" d="M124.6,205.6c4.9,2.2,6.8,0,13,1.3c2.6,0.5,4.4,1.1,5.6,1.5c-2.8-1.2-7.7-3.1-10.5-3
		c-4.2,0.1-6.3-0.1-8.9-2.4c-1.3-1.2-2-3-2.5-4.5c-0.5,0.1-1,0.2-1.5,0.2C120.1,200.2,120.8,203.9,124.6,205.6z"/>
</g>
<g>
	<path class="st8" d="M114.1,199.3c0,0.5,0,1.1,0,1.9C114.1,200.6,114.2,199.9,114.1,199.3z"/>
	<path class="st36" d="M114.1,199.3c0,0,0,9.7-17.7,30.2c-5.4,6.2-11.1,13.7-16.6,21.2c1.1,0.4,2.8,0.7,4.8,0.9
		c0.1-0.1,28.3-33.1,29.5-50.4C114.1,200.5,114.1,199.8,114.1,199.3z"/>
</g>
<g>
	<path class="st8" d="M114,206.8c0-0.8,0-1.6,0-2.4C114,205.2,114,205.9,114,206.8z"/>
	<path class="st8" d="M114,208.5c0-0.5,0-0.9,0-1.4C114,207.5,114,208,114,208.5z"/>
	<path class="st8" d="M113.9,212.1c0-1,0-1.9,0.1-2.8C113.9,210.2,113.9,211.1,113.9,212.1z"/>
	<path class="st8" d="M74,272.2c-0.4,0-0.8,0-1.1,0C73.2,272.2,73.6,272.2,74,272.2z"/>
	<path class="st8" d="M76,272.3c-0.4,0-0.8,0-1.2,0C75.2,272.3,75.6,272.3,76,272.3z"/>
	<path class="st8" d="M114.1,202c0-0.1,0-0.2,0-0.3C114.1,201.7,114.1,201.8,114.1,202z"/>
	<path class="st8" d="M113.9,214.6c0-0.5,0-1.1,0-1.6C113.9,213.6,113.9,214.1,113.9,214.6z"/>
	<path class="st8" d="M114.1,203.5c0-0.2,0-0.4,0-0.6C114.1,203.1,114.1,203.2,114.1,203.5z"/>
	<path class="st8" d="M78.1,272.3c-0.4,0-0.7,0-1.1,0C77.4,272.3,77.7,272.3,78.1,272.3z"/>
	<path class="st8" d="M72.2,272.2c-0.4,0-0.7,0-1.1,0C71.5,272.1,71.8,272.2,72.2,272.2z"/>
	<path class="st8" d="M69.1,272c-0.3,0-0.6,0-0.9,0C68.5,272,68.8,272,69.1,272z"/>
	<path class="st8" d="M70.6,272.1c-0.4,0-0.7,0-1,0C69.9,272.1,70.2,272.1,70.6,272.1z"/>
	<path class="st8" d="M79.5,272.4c0.3,0,0.5,0,0.8,0v0C80,272.4,79.7,272.4,79.5,272.4z"/>
	<path class="st8" d="M84.6,251.7c0.2,0,0.5,0,0.7,0.1l0,0C85.1,251.7,84.8,251.7,84.6,251.7z"/>
	<path class="st8" d="M142.3,249.5c1.7,0.5,4,0.9,7.1,1C146.3,250.4,144,250,142.3,249.5L142.3,249.5z"/>
	<polygon class="st23" points="149.4,250.4 149.4,250.4 149.4,250.4 	"/>
	<path class="st19" d="M67.9,272c0,0-0.1,0-0.1,0C67.8,272,67.9,272,67.9,272C67.9,272,67.9,272,67.9,272z"/>
	<path class="st17" d="M82.1,256.8c-5.3-0.7-13.1,13.1-14.2,15.2c0.1,0,0.2,0,0.3,0c0.3,0,0.6,0,0.9,0c0.1,0,0.3,0,0.4,0
		c0.3,0,0.7,0,1,0c0.2,0,0.4,0,0.5,0c0.3,0,0.7,0,1.1,0c0.2,0,0.4,0,0.7,0c0.4,0,0.7,0,1.1,0c0.3,0,0.5,0,0.8,0c0.4,0,0.8,0,1.2,0
		c0.3,0,0.7,0,1.1,0c0.4,0,0.7,0,1.1,0c0.4,0,0.9,0,1.4,0c0.3,0,0.5,0,0.8,0L82.1,256.8z"/>
	<path class="st17" d="M77,272.3c-0.4,0-0.7,0-1.1,0C76.3,272.3,76.7,272.3,77,272.3z"/>
	<path class="st17" d="M74.8,272.3c-0.3,0-0.6,0-0.8,0C74.2,272.2,74.5,272.2,74.8,272.3z"/>
	<path class="st17" d="M72.8,272.2c-0.2,0-0.4,0-0.7,0C72.4,272.2,72.6,272.2,72.8,272.2z"/>
	<path class="st17" d="M71.1,272.1c-0.2,0-0.4,0-0.5,0C70.7,272.1,70.9,272.1,71.1,272.1z"/>
	<path class="st17" d="M69.5,272.1c-0.1,0-0.3,0-0.4,0C69.2,272.1,69.4,272.1,69.5,272.1z"/>
	<path class="st17" d="M79.5,272.4c-0.5,0-0.9,0-1.4,0C78.6,272.3,79,272.3,79.5,272.4z"/>
	<path class="st17" d="M67.9,272c0.1,0,0.2,0,0.3,0C68.1,272,68,272,67.9,272C67.9,272,67.9,272,67.9,272z"/>
	<path class="st37" d="M113.9,213.1c0-0.3,0-0.7,0-1C113.9,212.4,113.9,212.7,113.9,213.1z"/>
	<path class="st37" d="M114,204.4c0-0.3,0-0.7,0-1C114.1,203.8,114.1,204.1,114,204.4z"/>
	<path class="st37" d="M114.1,201.3C114.1,201.3,114.1,201.3,114.1,201.3c0,0.1,0,0.3,0,0.4C114.1,201.5,114.1,201.4,114.1,201.3z"
		/>
	<path class="st37" d="M114.1,202.9c0-0.3,0-0.6,0-0.9C114.1,202.2,114.1,202.5,114.1,202.9z"/>
	<path class="st37" d="M114,207.1c0-0.1,0-0.2,0-0.3C114,206.9,114,207,114,207.1z"/>
	<path class="st37" d="M114,209.3c0-0.3,0-0.5,0-0.8C114,208.7,114,209,114,209.3z"/>
	<polygon class="st37" points="84.6,251.7 84.6,251.7 84.6,251.7 	"/>
	<path class="st36" d="M92.1,251.9c-0.6,0-1.2,0-1.9,0C90.8,251.9,91.5,251.9,92.1,251.9z"/>
	<path class="st36" d="M83.9,272.4C84,272.4,84,272.4,83.9,272.4C84,272.4,84,272.4,83.9,272.4C84,272.4,84,272.4,83.9,272.4z"/>
	<path class="st38" d="M138.6,243.3c0.1-1.1,0-2.1-0.2-2.9c-1-0.3-2.2-1-3.4-2c-4.4,5.1-17.4,7.1-18.4,7.2c-0.1,1.9-0.3,3.5-0.5,4.5
		c0,0-1,1.4-3.2,1.7v1.2c0,0-9-2.5-14.4-1.6c-1.6,0.3-3.9,0.4-6.4,0.5l0,0c0,0-4.3,17.6-6.3,20.6c0.5,0.1,0.9,0.3,0.9,0.7
		c0,0.3-1,3.6-2.3,8.2c0,0,9.2-0.9,17.7-7.6c8.5-6.7,24.4-2.7,32.1-6.1l0,0c0-10.2,1.8-21.6,1.9-22.7
		C136.2,243.9,137.6,243.4,138.6,243.3z"/>
	<path class="st36" d="M138.6,247.6c-0.1-0.1-0.1-0.1-0.2-0.1C138.5,247.5,138.6,247.6,138.6,247.6z"/>
	<path class="st36" d="M80.3,272.4c0.1,0,0.2,0,0.2,0C80.4,272.4,80.4,272.4,80.3,272.4L80.3,272.4z"/>
	<path class="st36" d="M84.9,272.4C84.9,272.4,84.8,272.4,84.9,272.4C84.8,272.4,84.9,272.4,84.9,272.4z"/>
	<path class="st36" d="M88.3,251.9c0.6,0,1.1,0,1.7,0C89.4,251.9,88.8,251.9,88.3,251.9z"/>
	<path class="st36" d="M138.7,247.7c0.6,0.5,1.8,1.2,3.6,1.8l0,0C140.5,248.9,139.3,248.2,138.7,247.7z"/>
	<path class="st36" d="M85.4,251.7L85.4,251.7c0.9,0.1,1.9,0.1,2.9,0.2C87.2,251.8,86.3,251.8,85.4,251.7z"/>
	<path class="st19" d="M158,223.9c-0.1-0.1-0.2-0.2-0.3-0.3c-0.1-0.1-0.2-0.2-0.3-0.2c-2,2.6-10.3,13.1-11.5,14
		c-0.5,0.4-1.4,1.6-2.7,2.4c-1.2,0.8-2.8,1.2-4.9,0.5c0.2,0.9,0.3,1.8,0.2,2.9c-0.1,0.7-0.3,1.5-0.6,2.3c0,0,0,0,0,0
		c-0.2,0.6-0.1,1.3,0.3,1.7c0,0.1,0.1,0.1,0.2,0.2c0,0,0.1,0.1,0.2,0.1c0,0,0,0,0.1,0.1c0.6,0.5,1.8,1.2,3.6,1.8
		c1.7,0.5,4,0.9,7.1,1c0,0,0,0,0,0c0-0.1,2-7.3,1.8-10C151,237.8,153,230.3,158,223.9z"/>
	<path class="st39" d="M133.8,237.4c-1.7-1.6-4-4-6.6-6.9c-3.3-3.7-7-8.2-10.3-12.2c0.1,4.7,0.1,9.8,0.1,14.5
		c0,4.9-0.2,9.4-0.4,12.7c1-0.1,14.1-2.1,18.4-7.2C134.6,238.1,134.2,237.8,133.8,237.4z"/>
	<path class="st40" d="M116.9,218.3c0-0.8,0-1.5,0-2.3c-0.1-9.4-0.4-16.9-0.4-16.9l0,0c-0.4,0-0.9,0.1-1.3,0.1c-0.3,0-0.7,0-1,0.1
		c0,0.5,0,1.1,0,1.9c0,0,0,0,0,0c0,0.1,0,0.3,0,0.4c0,0.1,0,0.2,0,0.3c0,0.3,0,0.6,0,0.9c0,0.2,0,0.4,0,0.6c0,0.3,0,0.6,0,1
		c0,0.7,0,1.5,0,2.4c0,0.1,0,0.2,0,0.3c0,0.4,0,0.9,0,1.4c0,0.3,0,0.5,0,0.8c0,0.9,0,1.8-0.1,2.8c0,0.3,0,0.7,0,1c0,0.5,0,1,0,1.6
		c-0.1,6-0.2,12.8-0.4,19c-0.2,9-0.5,16.5-0.7,18.2c2.2-0.4,3.2-1.7,3.2-1.7c0.2-1,0.4-2.6,0.5-4.5c0.2-3.4,0.4-7.8,0.4-12.7
		C117,228.1,116.9,223.1,116.9,218.3z"/>
	<path class="st23" d="M173,298.5c-2.5,0-3.6,0-7.2,2c-3.6,2.1-9.3,1.1-16.7-0.4s-8.3-3.6-9.2-7c-0.9-3.5,1.8-5.7,3.3-8.7
		c1.4-3-2.5-15.4-1.9-24.5c0.6-9.1,2.1-6.6,11.5-7.9c9.4-1.3,10.1-3.1,10.1-3.1c0-1.3-1.2-1.2-1.2-1.2s-3.8,2.4-11.6,2.5
		c-0.3,0-0.5,0-0.8,0c0,0,0,0,0,0c-3.1,0-5.4-0.4-7.1-1c-1.8-0.6-3-1.3-3.6-1.8c0,0,0,0-0.1-0.1c-0.1-0.1-0.1-0.1-0.2-0.1
		c-0.1-0.1-0.1-0.1-0.2-0.2c-0.4-0.4-0.5-1.1-0.3-1.7c0,0,0,0,0,0c0,0,0,0,0,0c0.3-0.8,0.5-1.5,0.6-2.3c-1,0.2-2.4,0.6-2.6,1.8
		c-0.1,1.1-1.8,12.5-1.9,22.7c0,4.9,0.4,9.5,1.5,12.6c0.2,0.6,0.2,1.3-0.1,1.9c-0.4,0.7-0.8,1.7-0.9,2.5c-0.3,1.4,1.5,1.5,1.2,3.4
		s-2.6,4.8-0.8,7.4c1.8,2.7,13,8.9,25.9,8.8C172.9,304.4,173.1,299.7,173,298.5z"/>
	<path class="st36" d="M138.5,247.5c-0.1-0.1-0.1-0.1-0.2-0.2C138.3,247.3,138.4,247.4,138.5,247.5z"/>
	<path class="st36" d="M138.7,247.7C138.7,247.6,138.7,247.6,138.7,247.7C138.7,247.6,138.7,247.6,138.7,247.7z"/>
	<path class="st36" d="M138,245.6C138,245.6,138,245.6,138,245.6C138,245.6,138,245.5,138,245.6C138,245.5,138,245.6,138,245.6z"/>
	<path class="st33" d="M82.6,322.5c-2.3-0.9-2.9-3.6-4-11.7c-0.2-1.6,0-4,0.4-6.9c1-6.7,3.5-15.9,5.3-22.5c1.3-4.6,2.3-7.9,2.3-8.2
		c0-0.3-0.4-0.5-0.9-0.7c-0.3-0.1-0.6-0.1-0.9-0.1c0,0,0,0,0,0c-0.3,0-0.6,0-0.9,0c0,0,0,0,0,0c-0.5,0-0.9,0-0.9,0
		c-0.9,0-1.8,0-2.6,0c-0.1,0-0.2,0-0.2,0c-0.3,0-0.5,0-0.8,0c-0.5,0-0.9,0-1.4,0c-0.4,0-0.7,0-1.1,0c-0.4,0-0.7,0-1.1,0
		c-0.4,0-0.8,0-1.2,0c-0.3,0-0.6,0-0.8,0c-0.4,0-0.8,0-1.1,0c-0.2,0-0.4,0-0.7,0c-0.4,0-0.7,0-1.1,0c-0.2,0-0.4,0-0.5,0
		c-0.4,0-0.7,0-1,0c-0.1,0-0.3,0-0.4,0c-0.3,0-0.6,0-0.9,0c-0.1,0-0.2,0-0.3,0c0,0-0.1,0-0.1,0c-0.1,0-0.2,0-0.3,0
		c-0.2,0-0.5,0-0.7,0c-0.4,4-1.5,15.2-2.6,19.2c-1.3,4.9-0.7,14.2,2.3,16.3c2.9,2.1,2.3,2.2,0.1,4.7c-2.2,2.6-3.2,4.4-1,7.2
		c2.3,2.9-1.2,2.9,1.9,6.1c3.5,3.6,9.4,1.5,18.2,0.9C85.5,324.9,84.4,323.2,82.6,322.5z"/>
	<path class="st19" d="M92.1,251.9c-0.6,0-1.2,0-1.9,0c-0.1,0-0.1,0-0.2,0c-0.6,0-1.1,0-1.7,0c0,0,0,0,0,0c-1,0-2-0.1-2.9-0.2
		c-0.3,0-0.5,0-0.7-0.1h0c-2-0.2-3.7-0.5-4.8-0.9c-5.3,7.3-10.2,14.7-14.3,21.1c0.7,0.1,1.4,0.1,2.3,0.1c0,0,0.1,0,0.1,0
		c1.2-2.1,8.9-15.9,14.2-15.2c0.3,0,0.5,0.1,0.8,0.2c5.7,2.5,3.6,7.6,1,15.4c0,0,0,0,0,0c0.3,0,0.6,0,0.9,0c0,0,0,0,0,0
		c0.3,0,0.6,0.1,0.9,0.1C87.7,269.5,92.1,251.9,92.1,251.9L92.1,251.9z"/>
	<path class="st36" d="M84.8,272.4c-0.3,0-0.6,0-0.9,0C84.2,272.4,84.5,272.4,84.8,272.4z"/>
	<path class="st36" d="M85.8,272.6c-0.3-0.1-0.6-0.1-0.9-0.1C85.2,272.5,85.5,272.5,85.8,272.6z"/>
	<path class="st36" d="M82.9,257c-0.3-0.1-0.5-0.2-0.8-0.2l-1.8,15.6c0.1,0,0.2,0,0.2,0c0.8,0,1.7,0,2.6,0c0,0,0.4,0,0.9,0
		c0,0,0,0,0,0C86.5,264.6,88.6,259.6,82.9,257z"/>
	<path class="st36" d="M83.1,272.4c0,0,0.4,0,0.9,0C83.5,272.4,83.1,272.4,83.1,272.4z"/>
	<path class="st36" d="M83.1,272.4c-0.9,0-1.8,0-2.6,0C81.3,272.4,82.2,272.4,83.1,272.4z"/>
	<path class="st18" d="M145.5,209.5L145.5,209.5c0,0-0.9-0.4-2.3-1c-1.2-0.4-3-1-5.6-1.5c-6.2-1.3-8.1,0.9-13-1.3
		c-3.8-1.8-4.6-5.4-4.7-6.9c-1.1,0.1-2.2,0.3-3.5,0.4l0,0c0,0,0.2,7.6,0.4,16.9c0,0.7,0,1.5,0,2.3c3.3,4,7,8.4,10.3,12.2
		c2.5,2.9,4.9,5.3,6.6,6.9c0.4,0.4,0.8,0.7,1.2,1c1.3,1,2.4,1.6,3.4,2c2.1,0.7,3.7,0.3,4.9-0.5c1.3-0.8,2.1-2,2.7-2.4
		c1.2-0.9,9.4-11.4,11.5-14c0.3-0.4,0.5-0.6,0.5-0.6C153.3,217.2,149.2,212.9,145.5,209.5z"/>
	<path class="st18" d="M84.6,251.7C84.6,251.7,84.6,251.7,84.6,251.7c0.2,0,0.5,0,0.7,0.1c0.9,0.1,1.9,0.1,2.9,0.2c0,0,0,0,0,0
		c0.6,0,1.1,0,1.7,0c0.1,0,0.1,0,0.2,0c0.6,0,1.3,0,1.9,0c2.5,0,4.8-0.2,6.4-0.5c5.4-0.9,14.4,1.6,14.4,1.6v-1.2
		c0.2-1.6,0.5-9.2,0.7-18.2c0.1-6.2,0.3-13,0.4-19c0-0.5,0-1.1,0-1.6c0-0.3,0-0.7,0-1c0-1,0-1.9,0.1-2.8c0-0.3,0-0.5,0-0.8
		c0-0.5,0-0.9,0-1.4c0-0.1,0-0.2,0-0.3c0-0.8,0-1.6,0-2.4c0-0.3,0-0.7,0-1c0-0.2,0-0.4,0-0.6c0-0.3,0-0.6,0-0.9c0-0.1,0-0.2,0-0.3
		c0-0.1,0-0.3,0-0.4C112.9,218.5,84.7,251.6,84.6,251.7z"/>
	<path class="st36" d="M90.2,251.9c-0.1,0-0.1,0-0.2,0C90,251.9,90.1,251.9,90.2,251.9z"/>
	<path class="st36" d="M88.2,251.9C88.2,251.9,88.3,251.9,88.2,251.9C88.3,251.9,88.2,251.9,88.2,251.9z"/>
</g>
<g>
	<path class="st21" d="M126.4,163.9c-0.3-7-7.8-31.8-9-35.6l-0.1,2.5c-0.4-0.1-0.7-0.3-1.1-0.4c0.2,0.7,0.5,1.5,0.7,2.4
		c1.1,4.1,1.8,9.2-0.8,11.9c-0.5,0.7-1.3,1.5-2.5,2.1c-0.9,0.4-1.9,0.6-2.9,0.5c-2,0.9-10.5-0.9-20.4-9.6
		c-7.7-6.8-12.6-7.5-14.5-7.4c-0.2,0.1-0.4,0.1-0.6,0.1c-2,0.6-3.5,1.6-4.3,2.3c-4.9,4.2-5.9,11.9-6.2,15.2c0,0,3-13.9,11.9-13.3
		c8.9,0.6,14.8,27.1,27.9,35.3c13.1,8.2,21.6,0.4,21.6,0.4C126.6,168.4,126.5,166.2,126.4,163.9z"/>
	<path class="st41" d="M107.3,48.6"/>
	<polygon class="st42" points="120.1,145.5 116.5,147.6 104.3,149.6 100.1,148.7 102.6,152.4 101.4,156.7 105.1,154.5 105.1,154.5 
		117.3,152.5 121.4,153.5 118.9,149.8 	"/>
	<g>
		<path class="st8" d="M79.5,130c-0.1,0-0.2,0-0.3,0C79.3,130,79.4,130,79.5,130z"/>
		<path class="st8" d="M76.9,130.1c-0.1,0-0.2,0-0.4,0.1C76.6,130.1,76.8,130.1,76.9,130.1z"/>
		<path class="st8" d="M80.5,130.2c-0.1,0-0.2,0-0.3,0C80.3,130.1,80.4,130.1,80.5,130.2z"/>
		<path class="st8" d="M77.7,130c-0.1,0-0.1,0-0.2,0C77.6,130,77.6,130,77.7,130z"/>
		<path class="st8" d="M97.6,140.9c-0.1-0.1-0.3-0.2-0.4-0.3C97.3,140.7,97.5,140.8,97.6,140.9z"/>
		<path class="st8" d="M96.6,140.2c-0.2-0.1-0.3-0.2-0.5-0.4C96.3,139.9,96.4,140.1,96.6,140.2z"/>
		<path class="st8" d="M98.6,141.6c-0.1-0.1-0.2-0.1-0.2-0.2C98.4,141.5,98.5,141.6,98.6,141.6z"/>
		<path class="st8" d="M78.3,130c0.1,0,0.2,0,0.3,0C78.5,130,78.4,130,78.3,130z"/>
		<path class="st8" d="M95.6,139.5c-0.3-0.2-0.6-0.5-0.9-0.7C95,139,95.3,139.2,95.6,139.5z"/>
		<path class="st43" d="M98.6,141.6c-0.1-0.1-0.2-0.1-0.2-0.2c-0.2-0.2-0.5-0.4-0.7-0.5c-0.1-0.1-0.3-0.2-0.4-0.3
			c-0.2-0.2-0.4-0.3-0.6-0.5c-0.2-0.1-0.3-0.2-0.5-0.4c-0.2-0.1-0.3-0.2-0.5-0.4c-0.3-0.2-0.6-0.5-0.9-0.7c-5-3.8-8.2-7.2-13.2-8.4
			c-0.4-0.1-0.7-0.2-1.1-0.2c-0.1,0-0.2,0-0.3,0c-0.2,0-0.5-0.1-0.7-0.1c-0.1,0-0.2,0-0.3,0c-0.2,0-0.4,0-0.6,0c-0.1,0-0.2,0-0.3,0
			c-0.2,0-0.4,0-0.6,0c-0.1,0-0.1,0-0.2,0c-0.2,0-0.4,0-0.6,0.1c-0.1,0-0.2,0-0.4,0.1c-0.1,0-0.1,0-0.2,0c-0.1,0-0.3,0.1-0.4,0.1
			c1.8-0.1,6.7,0.6,14.5,7.4c8,7.1,15.1,9.6,18.6,9.8l-0.1-0.4C105.6,146.3,101.8,144,98.6,141.6z"/>
		<path class="st43" d="M96.1,139.8c-0.2-0.1-0.3-0.2-0.5-0.4C95.8,139.6,96,139.7,96.1,139.8z"/>
		<path class="st43" d="M108.9,147L108.9,147c-3.4-0.7-7.1-3-10.4-5.4C101.8,144,105.6,146.3,108.9,147z"/>
		<path class="st43" d="M98.3,141.5c-0.2-0.2-0.5-0.4-0.7-0.5C97.8,141.1,98.1,141.3,98.3,141.5z"/>
		<path class="st43" d="M77.7,130c0.2,0,0.4,0,0.6,0C78.1,130,77.9,130,77.7,130z"/>
		<path class="st43" d="M97.2,140.7c-0.2-0.2-0.4-0.3-0.6-0.5C96.8,140.3,97,140.5,97.2,140.7z"/>
		<path class="st43" d="M79.2,130c-0.2,0-0.4,0-0.6,0C78.8,130,79,130,79.2,130z"/>
		<path class="st43" d="M81.5,130.4c-0.4-0.1-0.7-0.2-1.1-0.2C80.8,130.2,81.2,130.3,81.5,130.4z"/>
		<path class="st43" d="M76.4,130.2c0.1,0,0.1,0,0.2,0C76.5,130.1,76.4,130.1,76.4,130.2z"/>
		<path class="st43" d="M77.5,130c-0.2,0-0.4,0-0.6,0.1C77.1,130.1,77.3,130,77.5,130z"/>
		<path class="st43" d="M80.2,130.1c-0.2,0-0.5-0.1-0.7-0.1C79.7,130.1,79.9,130.1,80.2,130.1z"/>
		<path class="st19" d="M116.9,132.7c-0.2-0.9-0.5-1.7-0.7-2.4c-0.9-0.3-1.9-0.6-2.9-0.9c-10.3-3.1-26.7-6-31.3-6.8
			c-1,1-2.4,2.2-3.8,3.3c1.9-0.4,7.1-0.4,18.7,5.2c3.5,1.7,7.5,3.8,12.2,6.6c0,0,0.3-0.3,0.8-0.6
			C111.2,135.9,114.3,133.6,116.9,132.7z"/>
		<path class="st42" d="M109.8,147.2C109.8,147.2,109.8,147.2,109.8,147.2C109.8,147.2,109.8,147.2,109.8,147.2z"/>
		<path class="st42" d="M109,147.4l2.7,16.6l0.6,8.5l1.2-4.3l2.5,3.7l-2.1-8.3l0,0l-2.7-16.5c-0.2,0-0.4,0-0.5,0
			C110.4,147.4,109.8,147.5,109,147.4z"/>
		<g>
			<path class="st22" d="M116.9,132.7c-2.6,0.9-5.7,3.2-7.1,4.3c-0.5,0.4-0.8,0.6-0.8,0.6c-0.6-0.4-1.2-0.7-1.9-1.1
				c-3.9-2.3-7.3-4.1-10.3-5.5c-4.5-0.5-10.3-1-17-1.2c-3.8-0.1-6.6,1.1-8.7,2.9c0.9-0.7,2.3-1.8,4.3-2.3c0.2-0.1,0.5-0.1,1-0.2
				c0.1,0,0.1,0,0.2,0c0.1,0,0.2,0,0.4-0.1c0.2,0,0.4,0,0.6-0.1c0.1,0,0.1,0,0.2,0c0.2,0,0.4,0,0.6,0c0.1,0,0.2,0,0.3,0
				c0.2,0,0.4,0,0.6,0c0.1,0,0.2,0,0.3,0c0.2,0,0.4,0,0.7,0.1c0.1,0,0.2,0,0.3,0c0.3,0.1,0.7,0.1,1.1,0.2c5,1.2,8.2,4.6,13.2,8.4
				c0.3,0.2,0.6,0.5,0.9,0.7c0.2,0.1,0.3,0.2,0.5,0.4c0.2,0.1,0.3,0.2,0.5,0.4c0.2,0.2,0.4,0.3,0.6,0.5c0.1,0.1,0.3,0.2,0.4,0.3
				c0.2,0.2,0.5,0.4,0.7,0.5c0.1,0.1,0.2,0.1,0.2,0.2c3.3,2.4,7,4.7,10.4,5.4c0.3,0.1,0.6,0.1,0.9,0.2c0,0,0,0,0,0
				c0.3,0,0.6,0.1,1,0.1c0.2,0,0.4,0,0.5,0c0.8,0,1.6-0.2,2.3-0.5c1.2-0.6,2-1.4,2.5-2.1C118.7,141.9,118,136.8,116.9,132.7z"/>
			<polygon class="st22" points="110.8,147.2 110.8,147.2 110.8,147.2 			"/>
		</g>
		<path class="st42" d="M110.8,147.2c-0.3,0-0.6,0-1-0.1c0,0,0,0,0,0c-0.3,0-0.6-0.1-0.9-0.1l0.1,0.4
			C109.8,147.5,110.4,147.4,110.8,147.2z"/>
		<path class="st42" d="M110.8,147.2L110.8,147.2c-0.3,0-0.6,0-1-0.1C110.2,147.2,110.5,147.2,110.8,147.2z"/>
		<path class="st42" d="M109.8,147.2c-0.3,0-0.6-0.1-0.9-0.2l0,0C109.2,147.1,109.5,147.1,109.8,147.2z"/>
	</g>
	<path class="st44" d="M110.8,147.2c-0.3,0-0.6,0-1-0.1c0,0,0,0,0,0c-0.3,0-0.6-0.1-0.9-0.1l0.1,0.4
		C109.8,147.5,110.4,147.4,110.8,147.2z"/>
</g>
<g>
	<path class="st45" d="M93,85.1l-6.9,38.2c2.5,0.5,5.8,1.1,9.2,1.8l4.9-41.8C97.3,83.6,94.9,84.4,93,85.1z"/>
	<path class="st46" d="M88.3,87.8l-7.6,34.6c0,0,0.4,0.1,1.2,0.2c0.9,0.2,2.4,0.4,4.2,0.7L93,85.1C89.9,86.4,88.3,87.8,88.3,87.8z"
		/>
	<path class="st47" d="M104.2,83c-1.4,0-2.7,0.1-3.9,0.2l-4.9,41.8c2.6,0.5,5.4,1.1,8.1,1.7l5.1-43.3C107.2,83.2,105.8,83,104.2,83z
		"/>
	<path class="st48" d="M116.2,87.4l-2.2,42.2c0.7,0.2,1.5,0.5,2.1,0.7c0.4,0.1,0.8,0.3,1.1,0.4l0.1-2.5l0.1-2l1-36.3
		C118.4,89.9,117.7,88.7,116.2,87.4z"/>
</g>
<g>
	<g>
		<path class="st49" d="M108.5,98.4l1.3-14.6c-0.4-0.1-0.9-0.2-1.3-0.3l-5.1,43.3c0.8,0.2,1.6,0.4,2.5,0.6l2.2-24.4L108.5,98.4z"/>
		<path class="st50" d="M113.9,85.6c-0.4-0.3-0.9-0.5-1.4-0.7l-1.4,14.3l-0.4,4.5l-2.4,24.3c1.7,0.4,3.4,0.9,5,1.4
			c0.3,0.1,0.6,0.2,0.8,0.3l2.2-42.2C115.6,86.8,114.8,86.2,113.9,85.6z"/>
		<polygon class="st51" points="109.9,83 109.9,83.8 108.5,98.4 108.1,103 105.9,127.4 105.9,127.7 108.1,129.2 108.3,128 
			110.6,103.7 111.1,99.2 112.5,84.8 112.8,81.9 		"/>
	</g>
	<polygon class="st5" points="112.8,81.9 111.1,99.2 110.6,103.7 108.1,129.2 109.9,129.2 112.3,104.2 112.7,99.8 114.1,84.4 	"/>
</g>
<path class="st52" d="M94,96.9c-0.7-2.5-3.2-0.8-4.5,0.1c-0.7,0.5-1.6,1.4-1.8,2.6c-0.1,0.8,0.3,1.8,1.5,2.6
	c3.1,2.2,4.4-1.1,4.4-1.1c5.7,0,10.6,0.8,14.6,1.8l0.4-4.6C101.6,96.6,94,96.9,94,96.9z"/>
<path class="st52" d="M112.7,99.8l-0.4,4.4c3.6,1.3,5.6,2.4,5.4,2.4v-3.4C116.4,101.8,114.7,100.7,112.7,99.8z"/>
<g>
	<circle class="st53" cx="101.1" cy="104.4" r="0.5"/>
	<circle class="st53" cx="103.5" cy="104.9" r="0.5"/>
	<circle class="st53" cx="114.6" cy="107.7" r="0.5"/>
	<circle class="st53" cx="116.4" cy="108.2" r="0.5"/>
	<circle class="st53" cx="113.1" cy="109.5" r="0.5"/>
	<path class="st53" d="M114.6,109.7c-0.2,0.2-0.2,0.5-0.1,0.7c0.2,0.2,0.5,0.2,0.7,0.1c0.2-0.2,0.2-0.5,0.1-0.7
		C115.2,109.5,114.9,109.5,114.6,109.7z"/>
	<circle class="st53" cx="117.1" cy="111" r="0.5"/>
	<circle class="st53" cx="113.9" cy="112.2" r="0.5"/>
	<circle class="st53" cx="115.7" cy="112.8" r="0.5"/>
	<circle class="st53" cx="116.4" cy="115.4" r="0.5"/>
	<circle class="st53" cx="114.4" cy="114.8" r="0.5"/>
	<path class="st53" d="M112.5,114.8c0.3,0,0.5-0.2,0.5-0.5s-0.2-0.5-0.5-0.5c-0.3,0-0.5,0.2-0.5,0.5S112.2,114.8,112.5,114.8z"/>
	<path class="st53" d="M116.1,117.9c0-0.3-0.2-0.5-0.5-0.5c-0.3,0-0.5,0.2-0.5,0.5s0.2,0.5,0.5,0.5
		C115.9,118.4,116.1,118.1,116.1,117.9z"/>
	<path class="st53" d="M113.8,117.9c0.3,0,0.5-0.2,0.5-0.5c0-0.3-0.2-0.5-0.5-0.5s-0.5,0.2-0.5,0.5
		C113.3,117.6,113.5,117.9,113.8,117.9z"/>
	<path class="st53" d="M112.2,119.6c0.3,0,0.5-0.2,0.5-0.5s-0.2-0.5-0.5-0.5s-0.5,0.2-0.5,0.5S111.9,119.6,112.2,119.6z"/>
	<circle class="st53" cx="114.3" cy="119.7" r="0.5"/>
	<path class="st53" d="M116.1,119.9c-0.3,0-0.5,0.2-0.5,0.5s0.2,0.5,0.5,0.5s0.5-0.2,0.5-0.5S116.4,119.9,116.1,119.9z"/>
	<circle class="st53" cx="112.8" cy="121.7" r="0.5"/>
	<circle class="st53" cx="114.8" cy="122.2" r="0.5"/>
	<path class="st53" d="M111.6,123.1c-0.3,0-0.5,0.2-0.5,0.5c0,0.3,0.2,0.5,0.5,0.5c0.3,0,0.5-0.2,0.5-0.5
		C112.2,123.4,111.9,123.1,111.6,123.1z"/>
	<circle class="st53" cx="113.5" cy="124.2" r="0.5"/>
	<path class="st53" d="M115.6,124.4c-0.3,0-0.5,0.2-0.5,0.5s0.2,0.5,0.5,0.5c0.3,0,0.5-0.2,0.5-0.5S115.9,124.4,115.6,124.4z"/>
	<path class="st53" d="M112.5,125.7c-0.3,0-0.5,0.2-0.5,0.5s0.2,0.5,0.5,0.5c0.3,0,0.5-0.2,0.5-0.5S112.8,125.7,112.5,125.7z"/>
	<path class="st53" d="M114.3,126.2c-0.3,0-0.5,0.3-0.4,0.6c0,0.3,0.3,0.5,0.6,0.4c0.3,0,0.5-0.3,0.4-0.6S114.6,126.2,114.3,126.2z"
		/>
	<circle class="st53" cx="94" cy="105.8" r="0.5"/>
	<path class="st53" d="M96.5,106.8c0.3,0,0.5-0.2,0.5-0.5s-0.2-0.5-0.5-0.5S96,106,96,106.3S96.3,106.8,96.5,106.8z"/>
	<circle class="st53" cx="99" cy="106.7" r="0.5"/>
	<circle class="st53" cx="101.6" cy="107.2" r="0.5"/>
	<path class="st53" d="M104.3,107.2c-0.3,0-0.5,0.2-0.5,0.5s0.2,0.5,0.5,0.5s0.5-0.2,0.5-0.5S104.6,107.2,104.3,107.2z"/>
	<path class="st53" d="M92.3,108.6c0.3,0,0.5-0.2,0.5-0.5s-0.2-0.5-0.5-0.5s-0.5,0.2-0.5,0.5S92,108.6,92.3,108.6z"/>
	<circle class="st53" cx="94.9" cy="108.6" r="0.5"/>
	<circle class="st53" cx="97.3" cy="109" r="0.5"/>
	<path class="st53" d="M99.9,110c0.3,0,0.5-0.2,0.5-0.5s-0.2-0.5-0.5-0.5s-0.5,0.2-0.5,0.5S99.7,110,99.9,110z"/>
	<circle class="st53" cx="102.6" cy="110" r="0.5"/>
	<circle class="st53" cx="90.2" cy="110" r="0.5"/>
	<circle class="st53" cx="92.8" cy="110.5" r="0.5"/>
	<circle class="st53" cx="95.2" cy="110.9" r="0.5"/>
	<circle class="st53" cx="97.9" cy="111.4" r="0.5"/>
	<circle class="st53" cx="100.5" cy="111.9" r="0.5"/>
	<circle class="st53" cx="103.5" cy="112.4" r="0.5"/>
	<circle class="st53" cx="91.5" cy="112.4" r="0.5"/>
	<path class="st53" d="M94.6,112.9c0-0.3-0.2-0.5-0.5-0.5c-0.3,0-0.5,0.2-0.5,0.5s0.2,0.5,0.5,0.5C94.3,113.4,94.6,113.2,94.6,112.9
		z"/>
	<circle class="st53" cx="96.5" cy="113.3" r="0.5"/>
	<circle class="st53" cx="99.1" cy="113.8" r="0.5"/>
	<circle class="st53" cx="101.8" cy="114.3" r="0.5"/>
	<circle class="st53" cx="89.7" cy="114.7" r="0.5"/>
	<circle class="st53" cx="92.3" cy="115.2" r="0.5"/>
	<circle class="st53" cx="94.7" cy="115.6" r="0.5"/>
	<circle class="st53" cx="97.4" cy="116.1" r="0.5"/>
	<circle class="st53" cx="100" cy="116.6" r="0.5"/>
	<circle class="st53" cx="103" cy="117.1" r="0.5"/>
	<circle class="st53" cx="90.9" cy="117.4" r="0.5"/>
	<path class="st53" d="M93.5,117.4c-0.3,0-0.5,0.2-0.5,0.5s0.2,0.5,0.5,0.5s0.5-0.2,0.5-0.5S93.8,117.4,93.5,117.4z"/>
	<path class="st53" d="M96,117.8c-0.3,0-0.5,0.2-0.5,0.5s0.2,0.5,0.5,0.5c0.3,0,0.5-0.2,0.5-0.5S96.3,117.8,96,117.8z"/>
	<circle class="st53" cx="98.6" cy="118.8" r="0.5"/>
	<circle class="st53" cx="101.3" cy="119.3" r="0.5"/>
	<circle class="st53" cx="92.1" cy="120.1" r="0.5"/>
	<circle class="st53" cx="94.7" cy="120.6" r="0.5"/>
	<circle class="st53" cx="97.1" cy="121" r="0.5"/>
	<circle class="st53" cx="99.8" cy="121.5" r="0.5"/>
	<circle class="st53" cx="102.4" cy="122" r="0.5"/>
	<circle class="st53" cx="98.4" cy="123.6" r="0.5"/>
	<circle class="st53" cx="100.9" cy="124.1" r="0.5"/>
</g>
<path class="st53" d="M94,98.9l0.1,0.9c-0.9,0,8-0.3,13.6,1.9v-1.6C107.6,100.1,101.1,98.1,94,98.9z"/>
<circle class="st53" cx="92" cy="97.3" r="0.6"/>
<circle class="st53" cx="89.5" cy="99.1" r="0.5"/>
<circle class="st53" cx="90.9" cy="101" r="0.7"/>
<polygon class="st53" points="112.8,102 112.8,103.4 117.1,105.4 117.1,103.9 "/>
<circle class="st54" cx="117.5" cy="194.5" r="0.9"/>
<g>
	<path class="st55" d="M20.7,2c5.2,6.3,21.8,15.5,21.8,15.5l65.9,31.7l2.1-4.4L20.7,2L20.7,2z"/>
	<path class="st56" d="M46.7,8.8C34.4,2.9,20.7,2,20.7,2l89.8,42.8l2.1-4.3L46.7,8.8z"/>
</g>
<g>
	<path class="st5" d="M144.6,58.9c-0.1,0-0.2,0-0.2,0c0.3-0.3,0.5-0.7,0.5-1.2c0-1-0.8-1.8-1.8-1.8c-1,0-1.8,0.8-1.8,1.8
		c0,0.2,0.1,0.3,0.1,0.5l-3.1-1.5l0.6-1.1c0.3-0.5,0-1.2-0.5-1.4l-0.1-0.1c-0.5-0.3-1.2,0-1.4,0.5l-2,4.2c-0.3,0.5,0,1.2,0.5,1.4
		l0.1,0.1c0.5,0.3,1.2,0,1.4-0.5l0.6-1.1l3.5,1.7c-0.9,0.1-1.6,0.8-1.6,1.7c0,1,0.8,1.8,1.8,1.8c0.9,0,1.6-0.7,1.7-1.6
		c0.4,0.6,1,1,1.8,1c1.2,0,2.1-1,2.1-2.1C146.7,59.9,145.8,58.9,144.6,58.9z M142.5,61C142.5,61,142.5,61,142.5,61
		C142.5,61,142.4,61,142.5,61L142.5,61z"/>
	<path class="st5" d="M124.1,31.6c0.6-0.4,1-1,1-1.8c0-1.2-1-2.1-2.1-2.1c-1.2,0-2.1,1-2.1,2.1c0,0.1,0,0.2,0,0.2
		c-0.3-0.3-0.7-0.5-1.2-0.5c-1,0-1.8,0.8-1.8,1.8c0,1,0.8,1.8,1.8,1.8c0.2,0,0.3-0.1,0.5-0.1l-1.5,3.1l-1.1-0.6
		c-0.5-0.3-1.2,0-1.4,0.5l-0.1,0.1c-0.2,0.4-0.1,0.9,0.3,1.2c-0.6,0.2-1.2,0.7-1.5,1.3L108.4,52c-0.2,0.5-0.3,1-0.2,1.5
		c-0.4,0-0.8,0.2-0.9,0.6l-0.1,0.1c-0.3,0.5,0,1.2,0.5,1.4l1.1,0.6l-1.7,3.5c-0.1-0.9-0.8-1.6-1.7-1.6c-1,0-1.8,0.8-1.8,1.8
		c0,0.9,0.7,1.6,1.6,1.7c-0.6,0.4-1,1-1,1.8c0,1.2,1,2.1,2.1,2.1c1.2,0,2.1-1,2.1-2.1c0-0.1,0-0.2,0-0.2c0.3,0.3,0.7,0.5,1.2,0.5
		c1,0,1.8-0.8,1.8-1.8c0-1-0.8-1.8-1.8-1.8c-0.2,0-0.3,0.1-0.5,0.1l1.5-3.1l1.1,0.6c0.5,0.3,1.2,0,1.4-0.5l0.1-0.1
		c0.2-0.4,0.1-0.8-0.1-1.1c0.4-0.2,0.8-0.6,1-1.1l6.4-13.3c0.3-0.6,0.3-1.3,0.1-1.9c0.5,0.2,1.1,0,1.4-0.5l0.1-0.1
		c0.3-0.5,0-1.2-0.5-1.4l-1.1-0.6l1.7-3.5c0.1,0.9,0.8,1.6,1.7,1.6c1,0,1.8-0.8,1.8-1.8C125.7,32.4,125,31.6,124.1,31.6z
		 M106.4,61.3C106.4,61.3,106.4,61.3,106.4,61.3C106.4,61.2,106.4,61.2,106.4,61.3L106.4,61.3z M122.9,31.9
		C122.9,31.9,122.9,31.9,122.9,31.9C122.9,31.9,122.9,31.9,122.9,31.9L122.9,31.9z"/>
</g>
<path class="st51" d="M108.2,50.4l-0.8-0.4c-0.4-0.2-0.6-0.7-0.4-1.1l4.6-9.5c0.2-0.4,0.7-0.6,1.1-0.4l0.8,0.4
	c0.4,0.2,0.6,0.7,0.4,1.1l-4.6,9.5C109.1,50.4,108.6,50.6,108.2,50.4z"/>
<g>
	<path class="st8" d="M53,200.9l-0.7,4c4.7,0,9.5-0.3,14.4-1.1l-2.4-0.9L53,200.9z"/>
	<path class="st21" d="M70.7,203l2.2,3.1l-6.2-2.3c-4.8,0.8-9.7,1.1-14.4,1.1l-1.2,7.1l0,0l0.1,9.3l-3.6-5l-5.1,3.6l3.3-8.7l1.1-6.4
		c-13.6-0.7-24.9-3.7-29.1-5c16.9,33.6,56.8,34.4,56.8,34.4c1.7-11.9,3.8-23.7,5.7-34.1C77.2,201.3,74,202.2,70.7,203z"/>
	<g>
		<path class="st42" d="M70.7,203c-1.3,0.3-2.7,0.5-4,0.8l6.2,2.3L70.7,203z"/>
		<path class="st42" d="M52.3,204.8c-1.8,0-3.6,0-5.4-0.1l-1.1,6.4l-3.3,8.7l5.1-3.6l3.6,5l-0.1-9.3l0,0L52.3,204.8z"/>
	</g>
	<path class="st42" d="M74.4,197.5l-9.2,0.1l-11.3-2l2-11.3l3.2-8.5l-5,3.5l-3.6-5.1l0.1,9.2l-2,11.3l-11.2-1.9l-8.7-3.3l3.6,5.1
		l-5,3.6l9.3-0.1l0,0l11.2,1.9l-0.8,4.8c1.8,0.1,3.6,0.1,5.4,0.1l0.7-4l11.3,2l2.4,0.9c1.3-0.2,2.7-0.5,4-0.8l-1.4-1.9L74.4,197.5z"
		/>
</g>
<path class="st57" d="M70.7,203l2.2,3.1l-6.2-2.3c-4.8,0.8-9.7,1.1-14.4,1.1l-1.2,7.1l0,0l0.1,9.3l-3.6-5l-5.1,3.6l3.3-8.7l1.1-6.4
	c-13.6-0.7-24.9-3.7-29.1-5c16.9,33.6,56.8,34.4,56.8,34.4c1.7-11.9,3.8-23.7,5.7-34.1C77.2,201.3,74,202.2,70.7,203z"/>
<g class="st58">
	<path class="st53" d="M70.7,203c-1.3,0.3-2.7,0.5-4,0.8l6.2,2.3L70.7,203z"/>
	<path class="st53" d="M52.3,204.8c-1.8,0-3.6,0-5.4-0.1l-1.1,6.4l-3.3,8.7l5.1-3.6l3.6,5l-0.1-9.3l0,0L52.3,204.8z"/>
</g>
</svg>
