<?xml version="1.0" encoding="utf-8"?>
<!-- Generator: Adobe Illustrator 22.0.1, SVG Export Plug-In . SVG Version: 6.00 Build 0)  -->
<svg version="1.1" id="Calque_1" xmlns="http://www.w3.org/2000/svg" xmlns:xlink="http://www.w3.org/1999/xlink" x="0px" y="0px"
	 viewBox="0 0 198.9 235.2" style="enable-background:new 0 0 198.9 235.2;" xml:space="preserve">
<style type="text/css">
	.st0{fill:#E5E5E4;}
	.st1{fill:#575756;}
	.st2{fill:#CA9E67;}
	.st3{opacity:0.34;}
	.st4{clip-path:url(#SVGID_2_);fill:#1D1D1B;}
	.st5{clip-path:url(#SVGID_4_);fill:#1D1D1B;}
	.st6{clip-path:url(#SVGID_6_);fill:#1D1D1B;}
	.st7{fill:#F9C19F;}
	.st8{fill:#F6A21D;}
	.st9{opacity:0.42;}
	.st10{clip-path:url(#SVGID_8_);fill:#1D1D1B;}
	.st11{fill:#D92728;}
	.st12{fill:#7F2F34;}
	.st13{fill:#EB5D57;}
	.st14{fill:#1E424D;}
	.st15{fill:#1D424D;}
	.st16{fill:#E6332A;}
	.st17{fill:#BE1622;}
	.st18{fill:#CED3D7;}
	.st19{fill:#CDD3D7;}
	.st20{fill:#7F3035;}
	.st21{fill:#8DB6E2;}
	.st22{fill:#1D71B8;}
	.st23{fill:#36A9E1;}
</style>
<g>
	<g>
		<g>
			<g>
				<path class="st0" d="M193.8,168.3c-3.5-8-9.2-14.5-14.1-21.6c-0.6-0.9-1.3-1.8-1.9-2.7c-10.7-12.5-30.7-30-44.7-47
					c-0.6,1.6-1.1,3.2-1.7,4.7c-8.9,23.3-17.7,46.6-26.5,69.9c-0.8,2.2-1.7,4.3-2.5,6.5c26.8,44,55.6,54.4,90.3,28.7
					C198.5,195.2,199.4,181.1,193.8,168.3"/>
				<path class="st0" d="M43.2,102.7c23,15.3,46.7,52.4,46.7,52.4c0.9,1.8,1.7,3.5,2.6,5.2c1.1-2.8,2.2-5.6,3.3-8.3
					c9.2-22.9,18.4-45.8,27.6-68.7c-1.8-3.1-3.3-6.1-4.2-9.1c-5.8-17.5-11.2-27.3-14.2-32c-0.8-1.2-1.7-2.3-2.5-3.5
					C89.3,20.3,64,13.1,48.9,19.1c-2.8,0.7-4.3,1.6-6,2.4c-7.6,3.7-13.7,9.1-18.4,16.1c-2.8,4.3-4.8,8.8-6.1,13.6
					C19,64.9,25.3,90.8,43.2,102.7"/>
				<path class="st1" d="M92.5,160.3c0.2,0.5,0.5,0.9,0.7,1.4c2.8,5.4,5.5,10.5,8.3,15.1c0.3,0.5,0.6,0.9,0.8,1.4
					c0.8-2.2,1.7-4.3,2.5-6.5c8.8-23.3,17.6-46.6,26.5-69.9c0.6-1.6,1.2-3.2,1.7-4.7c-0.3-0.4-0.6-0.7-0.9-1.1
					c-3.1-3.8-5.9-7.6-8.1-11.3c-0.3-0.5-0.5-0.9-0.8-1.4c-9.2,22.9-18.3,45.8-27.6,68.7C94.6,154.8,93.5,157.6,92.5,160.3"/>
				<path class="st2" d="M102.4,38.8l2.4,3.3C103.3,39.8,102.4,38.8,102.4,38.8"/>
				<path class="st2" d="M178.3,144.7l5.6,7.8C182.7,150.2,180.7,147.6,178.3,144.7"/>
				<path class="st2" d="M28.2,94.8c-0.1-0.1-0.2-0.2-0.2-0.4c0,0-0.1-0.1-0.1-0.1L28.2,94.8z"/>
				<path class="st2" d="M97.4,189.1c0.2,0.2,0.4,0.5,0.5,0.7c0,0,0-0.1,0-0.1c-0.2-0.3-0.3-0.6-0.5-1
					C97.4,188.9,97.4,189,97.4,189.1"/>
				<path class="st0" d="M102.4,178.2c-1.5,3.8-2.9,7.6-4.4,11.5c1.9,3.7,3.9,7.3,6,10.9l-0.4-0.6c0,0,0,0,0,0
					c1.9,2.7,3.8,5.4,5.7,8c4,5.7,8,11.5,13.8,15.7c5.6,4,11.3,7.7,18.6,7.5c8.6,1.6,17.1,1.2,25.5-1.7c11.5-4,20.4-12.4,25.5-22.6
					C157.9,232.6,129.2,222.2,102.4,178.2"/>
				<g class="st3">
					<g>
						<defs>
							<rect id="SVGID_1_" x="97.9" y="178.2" width="94.7" height="54"/>
						</defs>
						<clipPath id="SVGID_2_">
							<use xlink:href="#SVGID_1_"  style="overflow:visible;"/>
						</clipPath>
						<path class="st4" d="M102.4,178.2c-1.5,3.8-2.9,7.6-4.4,11.5c1.9,3.7,3.9,7.3,6,10.9l-0.4-0.6c0,0,0,0,0,0
							c1.9,2.7,3.8,5.4,5.7,8c4,5.7,8,11.5,13.8,15.7c5.6,4,11.3,7.7,18.6,7.5c8.6,1.6,17.1,1.2,25.5-1.7
							c11.5-4,20.4-12.4,25.5-22.6C157.9,232.6,129.2,222.2,102.4,178.2"/>
					</g>
				</g>
				<path class="st0" d="M89.9,155.1c0,0-23.7-37.1-46.7-52.4C25.3,90.8,19,64.9,18.5,51.3c-1.1,4.4-1.6,8.9-1.5,13.6
					c0.2,8.1,2.1,15.6,6.3,22.5c1.5,2.4,3,4.7,4.7,7c1,1.2,17.5,20.3,35.2,38.5c11.2,11.4,18.4,24.4,25.1,37.6
					c1.5-3.4,2.8-6.8,4.2-10.2C91.6,158.6,90.7,156.9,89.9,155.1"/>
				<g class="st3">
					<g>
						<defs>
							<rect id="SVGID_3_" x="17" y="51.3" width="75.5" height="119.2"/>
						</defs>
						<clipPath id="SVGID_4_">
							<use xlink:href="#SVGID_3_"  style="overflow:visible;"/>
						</clipPath>
						<path class="st5" d="M89.9,155.1c0,0-23.7-37.1-46.7-52.4C25.3,90.8,19,64.9,18.5,51.3c-1.1,4.4-1.6,8.9-1.5,13.6
							c0.2,8.1,2.1,15.6,6.3,22.5c1.5,2.4,3,4.7,4.7,7c1,1.2,17.5,20.3,35.2,38.5c11.2,11.4,18.4,24.4,25.1,37.6
							c1.5-3.4,2.8-6.8,4.2-10.2C91.6,158.6,90.7,156.9,89.9,155.1"/>
					</g>
				</g>
				<path class="st1" d="M101.5,176.9c-2.8-4.7-5.6-9.7-8.3-15.1c-0.2-0.5-0.5-0.9-0.7-1.4c-1.3,3.4-2.7,6.8-4.2,10.2
					c0.3,0.5,0.5,1,0.8,1.6c2.8,5.5,5.5,11.1,8.4,16.7c0.2,0.3,0.3,0.6,0.5,1c1.5-3.8,2.9-7.6,4.4-11.5
					C102.1,177.8,101.8,177.3,101.5,176.9"/>
				<g class="st3">
					<g>
						<defs>
							<rect id="SVGID_5_" x="88.3" y="160.3" width="14.1" height="29.4"/>
						</defs>
						<clipPath id="SVGID_6_">
							<use xlink:href="#SVGID_5_"  style="overflow:visible;"/>
						</clipPath>
						<path class="st6" d="M101.5,176.9c-2.8-4.7-5.6-9.7-8.3-15.1c-0.2-0.5-0.5-0.9-0.7-1.4c-1.3,3.4-2.7,6.8-4.2,10.2
							c0.3,0.5,0.5,1,0.8,1.6c2.8,5.5,5.5,11.1,8.4,16.7c0.2,0.3,0.3,0.6,0.5,1c1.5-3.8,2.9-7.6,4.4-11.5
							C102.1,177.8,101.8,177.3,101.5,176.9"/>
					</g>
				</g>
				<path class="st7" d="M95.9,47.2c-6-9.9-14.8-15.7-26.4-17c-0.2,0.6-0.5,1-0.8,1.4c0,0,0,0,0,0s-0.3,2.9-5.9,4.3
					c-5.7,1.4-10.1,15.2-18.5,21.7C36,64,30.3,60,30.2,59.9c-0.5,3.3-0.6,6.6-0.2,10C32,88.4,49.5,103.3,69.3,101
					C95,98.1,109.6,69.6,95.9,47.2"/>
				<path class="st8" d="M69.6,30.2c-0.5-3.4-2.9-5.1-5.8-6.7c-0.2,0.9-0.3,1.5-0.4,2.1c-0.5,2.8-1.8,4.3-5.1,5
					c-8.3,1.8-14.9,5.5-19.7,11c8.5-5.3,20.6-8.2,26.6-9.4C66.6,31.5,68,30.6,69.6,30.2"/>
				<path class="st8" d="M68.8,31.6c0.3-0.4,0.6-0.9,0.8-1.4c-1.6,0.4-2.9,1.4-4.4,2.1C67.3,31.8,68.6,31.6,68.8,31.6"/>
				<path class="st7" d="M44.3,57.6c8.4-6.5,12.9-20.3,18.5-21.7c5.7-1.4,5.9-4.3,5.9-4.3s0,0,0,0c-1.2,1.5-3,2-4.7,2.3
					c-3.9,0.6-6.1,2.8-8,5.9c-3.4,5.4-6.7,10.8-11.4,15.2c-3.4,3.1-7.2,4.9-11.9,4.5c-1.2-0.1-2.1-0.3-2.2-1.7
					c-0.1,0.7-0.2,1.5-0.3,2.2C30.3,60,36,64,44.3,57.6"/>
				<path class="st8" d="M30.5,57.7c7.9,2.1,12.7-2.6,17.2-7.9c3-3.7,5.4-7.8,8.1-11.8c1.7-2.6,3.8-4.6,7-5c0.9-0.1,1.7-0.4,2.5-0.8
					c-6,1.2-18.1,4.1-26.6,9.4C34.9,45.9,32.2,51.3,30.5,57.7z"/>
				<path class="st8" d="M62.7,33.1c-3.2,0.4-5.2,2.4-7,5c-2.6,4-5,8.1-8.1,11.8c-4.4,5.3-9.3,10-17.2,7.9c0,1.4,1,1.6,2.2,1.7
					c4.7,0.4,8.5-1.4,11.9-4.5c4.7-4.4,8-9.8,11.4-15.2c2-3.1,4.2-5.3,8-5.9c1.7-0.3,3.5-0.8,4.7-2.3c-0.1,0-1.4,0.2-3.6,0.6
					C64.4,32.6,63.6,32.9,62.7,33.1"/>
				<g class="st9">
					<g>
						<defs>
							<rect id="SVGID_7_" x="30.2" y="31.6" width="38.6" height="29.6"/>
						</defs>
						<clipPath id="SVGID_8_">
							<use xlink:href="#SVGID_7_"  style="overflow:visible;"/>
						</clipPath>
						<path class="st10" d="M44.3,57.6c8.4-6.5,12.9-20.3,18.5-21.7c5.7-1.4,5.9-4.3,5.9-4.3s0,0,0,0c-1.2,1.5-3,2-4.7,2.3
							c-3.9,0.6-6.1,2.8-8,5.9c-3.4,5.4-6.7,10.8-11.4,15.2c-3.4,3.1-7.2,4.9-11.9,4.5c-1.2-0.1-2.1-0.3-2.2-1.7
							c-0.1,0.7-0.2,1.5-0.3,2.2C30.3,60,36,64,44.3,57.6"/>
					</g>
				</g>
				<polygon class="st11" points="160,158.2 154.1,164.6 145.4,171 138.9,162.2 135.2,154.5 134.3,160.2 128.5,159.3 134.9,165.2 
					141.3,174 132.7,180.3 124.7,184.2 130.5,185 129.6,190.8 135.7,184.4 135.7,184.4 144.3,178 150.6,186.6 154.5,194.6 
					155.3,188.8 161.1,189.7 154.7,183.7 154.7,183.6 148.3,175 157.1,168.6 164.8,164.9 159.1,164 				"/>
				<path class="st12" d="M70.9,82c-2.3,2.7-5.2,4-8.8,3.3c-2.9-0.6-4.8-2.5-5.5-5.3c-0.7-2.9-0.1-5.5,2.2-7.6
					c0.9-0.8,1.9-1.5,3-1.7c4.2-0.9,7.1-3.4,9.6-6.8c4.1-5.5,12.4-4.4,15.2,1.9c2.4,5.3-0.7,11.3-6.5,12.4c-1.8-0.2-2.3-1.8-3.1-3
					c-0.9-1.4-1.6-3.5-3.9-2.9c-1.6,0.4-2.6,2.8-2.2,5.2C71.1,79,71.5,80.5,70.9,82"/>
				<path class="st13" d="M70.9,82c-1.3-2.7-1.6-5.4-0.8-8.3c0.4-1.6,1.5-2.4,2.9-2.8c1.5-0.4,2.7,0.2,3.5,1.4
					c1.3,1.9,2.4,3.9,3.6,5.9C77.1,79.5,73.5,79.7,70.9,82"/>
				<path class="st14" d="M53.7,63.6c2,2.4-3.7-0.3-6.1,1.6c-2.6,2.1-1,8.1-3,5.6c-2-2.5-1.5-6.3,1.1-8.3
					C48.1,60.7,51.7,61.2,53.7,63.6"/>
				<path class="st15" d="M72.5,48.5c-2.9,1.5-2.9,7.2-4.3,4.2c-1.4-2.9-0.3-6.1,2.6-7.5c2.9-1.4,6.3-0.4,7.7,2.3
					C79.9,50.4,75.3,47.1,72.5,48.5"/>
				<path class="st0" d="M39.8,211.3c-1.9,1.9-4.2,2.5-6.9,2.2c-4.3-0.5-8.6-0.9-12.9-1.3c-5.5-0.6-7.6-3.1-7-8.6
					c1-10.2,2-20.4,3-30.5c0.5-1.5,1.8-1.3,2.9-1.2c7.4,0.8,14.7,1.5,22.1,2.2c1.3,0.1,2.7,0.2,3.6,1.4c1,1.4,0.7,2.9,0.5,4.4
					c-1,8.9-1.8,17.8-2.7,26.7C42.3,208.5,42.3,210.6,39.8,211.3"/>
				<path class="st16" d="M43.2,165.9c2.5,0.7,4.6,1.7,4.8,4.6c0.1,2.6-1.5,4.2-3.8,5.3c-9.4-1.2-18.8-2.2-28.2-2.8
					c-3.2-3.2-3.5-5.8-0.9-8.2c1.2-1,2.5-1.2,4-1.2c1-0.6,2.1-1,3.3-0.8c5.9,0.6,11.8,1.2,17.7,1.8
					C41.2,164.7,42.4,164.9,43.2,165.9"/>
				<path class="st17" d="M43.2,165.9c-5.8-0.1-11.5-1-17.2-1.5c-2.3-0.2-4.6-0.5-6.9-0.8c0.9-2.7,2.6-4.8,5.4-5.5
					c1.4-0.4,1.7-1.3,1.9-2.5c0.7-5.1,2.6-6.6,7.8-6.2c3,1.5,4.2,4,3.7,7.3c-0.2,1.4,0,2.3,1.4,3C41.7,161,43,163.1,43.2,165.9"/>
				<path class="st18" d="M28.7,180.2c-0.7-0.4-0.9-0.7-0.8-1.1c0.2-0.5,0.6-0.7,1-0.7c3.4,0.3,6.8,0.7,10.1,1
					c0.5,0.1,0.8,0.4,0.8,0.9c0,0.4-0.3,0.8-0.6,0.7C35.6,180.8,32,180.5,28.7,180.2"/>
				<path class="st19" d="M39.3,187.1c-0.4,0.5-0.9,0.6-1.4,0.5c-3-0.3-6-0.6-9.1-1c-0.5-0.1-1.2-0.1-1.2-0.8c0-0.8,0.8-0.9,1.4-0.8
					c3.1,0.3,6.2,0.5,9.3,0.9C39,186,39.6,186.2,39.3,187.1"/>
				<path class="st20" d="M164.7,64c-0.4-1.4,0.3-2.5,0.7-3.7c-0.8-1.2,0-2.2,0.5-3.2c0.6-1.5,1.2-2.9,3-3.3c0.7-1.3,1.5-2.6,2.2-4
					c0.8-1.5,2-2.2,3.5-1.4c1.6,0.8,1.9,2.2,1.1,3.9c-0.3,0.6-0.6,1.3-1,1.9c-0.6,1.1,0.2,1.1,1,1.2c1.3,0.1,2.2,0.7,2.7,1.9
					c0.4,0.8,0.2,1.8,0.3,2.6c0,0.5-0.2,0.9-0.4,1.3c-1,0.8-1.8,1.9-3.3,2.1c-1,0.2-1.9-0.1-2.9-0.3c-1.4-0.2-1.8,0.9-2.3,1.8
					c-0.7,1.1-1.6,1.9-3,1.7C165.4,66.2,165.1,65.1,164.7,64"/>
				<path class="st0" d="M168.9,53.7c-0.6,1.3-1.1,2.6-2.1,3.7c-3.2,1.6-6.5,0.7-9.6-0.2c-1.8-0.5-3-2.2-2.8-4.3
					c-0.3-3.6,0.7-5.7,3.2-6.7c2.4-1,5-0.1,7.2,2.6C166.2,50.5,167.5,52.1,168.9,53.7"/>
				<path class="st17" d="M177.5,57.3c-0.6-0.6-1.2-1.3-1.7-1.9c3.3-2.6,7.2-2.9,10.6-0.8c3.7,2.3,5.1,6.2,4,11.2
					c-0.6,4.2-4.3,7.4-8.5,7.5c-5.3,0-8.8-2.9-9.6-8.1c0.1-0.4,0.1-0.9-0.3-1.2c-0.5-0.7-1-1.4,0.1-2c0.9,0.2,1.9,0.4,2.8,0.5
					c0.5,0.4,1.1,0.8,1.2,1.5c1.3,2.9,3.3,4.2,5.9,3.9c2.9-0.3,4.3-2,5-5.9c-0.9-3.1-3.4-4.8-6.6-4.5
					C179.4,57.5,178.4,57.9,177.5,57.3"/>
				<path class="st21" d="M46,72.5c-0.1,1.1-0.3,2.3-0.7,3.4c-0.2,0.6-0.4,1.1-0.5,1.7c-0.1,0.6-0.1,1.2,0.2,1.7
					c0.2,0.4,0.6,0.8,1.1,1c0.5,0.2,1,0.2,1.5,0c0.5-0.2,0.8-0.6,1-1c0.2-0.5,0.2-1,0.1-1.4c-0.2-0.4-0.4-0.8-0.8-1.1
					c-0.3-0.3-0.7-0.6-1-1C46.2,74.8,45.9,73.6,46,72.5"/>
				<path class="st22" d="M46,72.5c-0.1,1.1-0.3,2.3-0.7,3.4c-0.2,0.6-0.4,1.1-0.5,1.7c-0.1,0.6-0.1,1.2,0.2,1.7
					c0.2,0.4,0.6,0.8,1.1,1c0.5,0.2,1,0.2,1.5,0c0.5-0.2,0.8-0.6,1-1c0.2-0.5,0.2-1,0.1-1.4c-0.2-0.4-0.4-0.8-0.8-1.1
					c-0.3-0.3-0.7-0.6-1-1C46.2,74.8,45.9,73.6,46,72.5"/>
				<path class="st23" d="M46,74.3c-0.2,0.9-0.4,1.9-0.6,2.8c-0.1,0.3-0.2,0.6-0.2,0.9c0,0.3,0,0.6,0.1,0.9c0,0.2,0.1,0.3,0.2,0.4
					c0.1,0.1,0.2,0.2,0.4,0.3c0.1,0.1,0.3,0.1,0.5,0.1c0.2,0,0.3-0.1,0.4-0.2c0.1-0.1,0.2-0.3,0.2-0.4c0-0.2,0-0.3,0-0.5
					c-0.1-0.3-0.3-0.6-0.4-0.9C45.9,76.5,45.8,75.4,46,74.3"/>
				<path class="st21" d="M79.7,49.8c0.9,0.3,1.8,0.9,2.2,1.8c0.2,0.4,0.3,0.7,0.5,1.1c0.2,0.4,0.3,0.7,0.6,1
					c0.3,0.3,0.8,0.4,1.2,0.4c0.4,0,0.9-0.2,1.2-0.5c0.3-0.3,0.5-0.7,0.5-1.2c0-0.4-0.1-0.9-0.4-1.2c-0.3-0.4-0.8-0.6-1.3-0.7
					c-0.5-0.1-1-0.1-1.5-0.2C81.7,50.3,80.7,50.1,79.7,49.8"/>
				<path class="st22" d="M79.7,49.8c0.9,0.3,1.8,0.9,2.2,1.8c0.2,0.4,0.3,0.7,0.5,1.1c0.2,0.4,0.3,0.7,0.6,1
					c0.3,0.3,0.8,0.4,1.2,0.4c0.4,0,0.9-0.2,1.2-0.5c0.3-0.3,0.5-0.7,0.5-1.2c0-0.4-0.1-0.9-0.4-1.2c-0.3-0.4-0.8-0.6-1.3-0.7
					c-0.5-0.1-1-0.1-1.5-0.2C81.7,50.3,80.7,50.1,79.7,49.8"/>
				<path class="st23" d="M81.1,50.4c1,0.2,1.8,0.7,2.5,1.5c0.2,0.2,0.4,0.5,0.6,0.6c0.1,0.1,0.2,0.2,0.4,0.2c0.1,0,0.3,0,0.4,0
					c0.1-0.1,0.2-0.2,0.3-0.3c0.1-0.1,0.1-0.3,0.1-0.4c0-0.1,0-0.3-0.1-0.4c-0.1-0.1-0.2-0.2-0.3-0.3c-0.2-0.2-0.4-0.3-0.7-0.3
					c-0.3-0.1-0.5-0.1-0.8-0.1C82.8,50.7,81.9,50.5,81.1,50.4"/>
				<path class="st21" d="M48.5,82.3c0.2,0.7,0.3,1.4,0.3,2.2c0,0.4,0,0.7,0.1,1.1c0.1,0.4,0.2,0.7,0.5,1c0.2,0.2,0.5,0.3,0.9,0.4
					c0.3,0,0.6-0.1,0.9-0.3s0.4-0.5,0.4-0.8c0-0.3-0.1-0.6-0.3-0.9c-0.2-0.2-0.4-0.4-0.7-0.5c-0.3-0.1-0.5-0.2-0.8-0.4
					C49.1,83.6,48.7,83,48.5,82.3"/>
				<path class="st22" d="M48.5,82.3c0.2,0.7,0.3,1.4,0.3,2.2c0,0.4,0,0.7,0.1,1.1c0.1,0.4,0.2,0.7,0.5,1c0.2,0.2,0.5,0.3,0.9,0.4
					c0.3,0,0.6-0.1,0.9-0.3s0.4-0.5,0.4-0.8c0-0.3-0.1-0.6-0.3-0.9c-0.2-0.2-0.4-0.4-0.7-0.5c-0.3-0.1-0.5-0.2-0.8-0.4
					C49.1,83.6,48.7,83,48.5,82.3"/>
				<path class="st23" d="M48.9,83.4c0.1,0.6,0.2,1.2,0.2,1.8c0,0.2,0,0.4,0.1,0.6c0,0.2,0.1,0.4,0.2,0.5c0.1,0.1,0.1,0.2,0.2,0.2
					c0.1,0.1,0.2,0.1,0.3,0.1c0.1,0,0.2,0,0.3-0.1c0.1,0,0.2-0.1,0.2-0.2c0-0.1,0.1-0.2,0-0.3c0-0.1-0.1-0.2-0.1-0.3
					c-0.1-0.2-0.3-0.3-0.4-0.5C49.3,84.7,49,84.1,48.9,83.4"/>
				<path class="st21" d="M87.4,55.3c0.7,0.4,1.1,1.2,1.3,2c0.1,0.3,0.1,0.6,0.1,1c0,0.3,0.1,0.6,0.2,0.9c0.2,0.3,0.5,0.5,0.8,0.6
					c0.3,0.1,0.7,0.1,1-0.1c0.3-0.2,0.6-0.4,0.7-0.8c0.1-0.3,0.1-0.7,0-1c-0.2-0.4-0.5-0.7-0.8-0.9c-0.4-0.2-0.7-0.3-1.1-0.5
					C88.8,56.2,88.1,55.8,87.4,55.3"/>
				<path class="st22" d="M87.4,55.3c0.7,0.4,1.1,1.2,1.3,2c0.1,0.3,0.1,0.6,0.1,1c0,0.3,0.1,0.6,0.2,0.9c0.2,0.3,0.5,0.5,0.8,0.6
					c0.3,0.1,0.7,0.1,1-0.1c0.3-0.2,0.6-0.4,0.7-0.8c0.1-0.3,0.1-0.7,0-1c-0.2-0.4-0.5-0.7-0.8-0.9c-0.4-0.2-0.7-0.3-1.1-0.5
					C88.8,56.2,88.1,55.8,87.4,55.3"/>
				<path class="st23" d="M88.4,56.1c0.7,0.4,1.2,1,1.5,1.8c0.1,0.2,0.2,0.4,0.3,0.6c0.1,0.1,0.2,0.2,0.3,0.2
					c0.1,0.1,0.2,0.1,0.3,0.1c0.1,0,0.2-0.1,0.3-0.1c0.1-0.1,0.1-0.2,0.2-0.3c0-0.1,0-0.2,0-0.3c0-0.1-0.1-0.2-0.1-0.3
					c-0.1-0.2-0.3-0.3-0.5-0.4c-0.2-0.1-0.4-0.2-0.6-0.3C89.6,56.7,89,56.4,88.4,56.1"/>
			</g>
		</g>
	</g>
</g>
</svg>
