<?xml version="1.0" encoding="utf-8"?>
<!-- Generator: Adobe Illustrator 22.0.1, SVG Export Plug-In . SVG Version: 6.00 Build 0)  -->
<svg version="1.1" id="Calque_1" xmlns="http://www.w3.org/2000/svg" xmlns:xlink="http://www.w3.org/1999/xlink" x="0px" y="0px"
	 viewBox="0 0 296.3 235.2" style="enable-background:new 0 0 296.3 235.2;" xml:space="preserve">
<style type="text/css">
	.st0{opacity:0.84;fill:url(#SVGID_1_);}
	.st1{fill:url(#SVGID_2_);}
	.st2{fill:#FFFFFF;}
	.st3{fill:#F9F9F9;}
	.st4{fill:#C2C2C2;}
</style>
<linearGradient id="SVGID_1_" gradientUnits="userSpaceOnUse" x1="-1061.5353" y1="212.4976" x2="-934.4824" y2="85.4446" gradientTransform="matrix(1 0 0 1 1116 0)">
	<stop  offset="0" style="stop-color:#BCBEC0"/>
	<stop  offset="1" style="stop-color:#BCBEC0"/>
</linearGradient>
<path class="st0" d="M40,30.5c0,0-51.6,44.8-29.9,117.7s94.1,86,136,86.9s101.2-7.2,124.6-44.6S40,30.5,40,30.5z"/>
<linearGradient id="SVGID_2_" gradientUnits="userSpaceOnUse" x1="-1055.8344" y1="205.5942" x2="-896.2321" y2="45.992" gradientTransform="matrix(1 0 0 1 1116 0)">
	<stop  offset="0" style="stop-color:#BCBEC0"/>
	<stop  offset="0.6261" style="stop-color:#8C8D90"/>
	<stop  offset="1" style="stop-color:#6D6E71"/>
</linearGradient>
<path class="st1" d="M81.9,2.3c0,0,42.3-17.7,84.1,44.1S281.2,86,294.3,125c13,39-38.1,98-103.6,102.7c-65.5,4.6-141.3-6-170.5-73.4
	S29.9,20.5,81.9,2.3z"/>
<g>
	<image style="overflow:visible;" width="65" height="135" xlink:href="45A74A6A.png"  transform="matrix(1 0 0 1 0.4583 77.1912)">
	</image>
	<g>
		<rect x="11.3" y="69" class="st2" width="99.4" height="144.6"/>
		
			<rect x="-8" y="94.9" transform="matrix(-1.836970e-16 1 -1 -1.836970e-16 202.2828 80.3345)" class="st3" width="138" height="92.7"/>
		
			<rect x="2" y="105" transform="matrix(-1.836970e-16 1 -1 -1.836970e-16 202.2828 80.3345)" class="st2" width="117.9" height="72.7"/>
		
			<image style="overflow:visible;" width="73" height="119" xlink:href="45A74A6E.png"  transform="matrix(1 0 0 1 24.4583 82.1912)">
		</image>
		
			<image style="overflow:visible;" width="93" height="11" xlink:href="45A74A69.png"  transform="matrix(1 0 0 1 14.4583 72.1912)">
		</image>
		
			<image style="overflow:visible;" width="93" height="11" xlink:href="45A74A6B.png"  transform="matrix(1 0 0 1 14.4583 200.1912)">
		</image>
		
			<image style="overflow:visible;" width="11" height="139" xlink:href="45A74A68.png"  transform="matrix(1 0 0 1 96.4583 72.1912)">
		</image>
		
			<image style="overflow:visible;" width="101" height="4" xlink:href="45A74A76.png"  transform="matrix(1 0 0 1 10.4583 210.1912)">
		</image>
		
			<image style="overflow:visible;opacity:0.72;" width="5" height="146" xlink:href="45A74A79.png"  transform="matrix(1 0 0 1 10.4583 68.1912)">
		</image>
		
			<image style="overflow:visible;" width="11" height="139" xlink:href="45A74A7A.png"  transform="matrix(1 0 0 1 14.4583 72.1912)">
		</image>
		
			<image style="overflow:visible;" width="24" height="11" xlink:href="45A74A78.png"  transform="matrix(1 0 0 1 83.4583 200.1912)">
		</image>
		
			<image style="overflow:visible;opacity:0.49;" width="22" height="11" xlink:href="112DC1AD.png"  transform="matrix(1 0 0 1 85.4583 72.1912)">
		</image>
		
			<image style="overflow:visible;" width="11" height="17" xlink:href="112DC1A3.png"  transform="matrix(1 0 0 1 14.4583 72.1912)">
		</image>
		
			<image style="overflow:visible;opacity:0.77;" width="16" height="11" xlink:href="112DC1A5.png"  transform="matrix(1 0 0 1 14.4583 72.1912)">
		</image>
		
			<image style="overflow:visible;" width="11" height="16" xlink:href="112DC1A7.png"  transform="matrix(1 0 0 1 96.4583 195.1912)">
		</image>
		
			<image style="overflow:visible;" width="93" height="3" xlink:href="112DC1A4.png"  transform="matrix(1 0 0 1 14.4583 208.1912)">
		</image>
		
			<image style="overflow:visible;" width="5" height="83" xlink:href="112DC1BC.png"  transform="matrix(1 0 0 1 106.4583 131.1912)">
		</image>
		
			<image style="overflow:visible;" width="3" height="142" xlink:href="112DC1BD.png"  transform="matrix(1 0 0 1 12.4583 70.1912)">
		</image>
		
			<image style="overflow:visible;" width="101" height="5" xlink:href="112DC1BF.png"  transform="matrix(1 0 0 1 10.4583 68.1912)">
		</image>
	</g>
	
		<image style="overflow:visible;opacity:0.86;" width="165" height="122" xlink:href="112DC1BB.png"  transform="matrix(1 0 0 1 44.4583 87.1912)">
	</image>
	<polygon class="st2" points="105,65.5 72.3,167.7 201.4,207.7 228.6,118.3 	"/>
	
		<image style="overflow:visible;" width="158" height="143" xlink:href="112DC1A6.png"  transform="matrix(1 0 0 1 71.4583 65.1912)">
	</image>
	<polygon class="st4" points="105,65.5 88.1,118.4 72.3,167.7 66.3,163.5 81.5,116.4 95.1,74.3 	"/>
	
		<image style="overflow:visible;opacity:0.6;" width="18" height="40" xlink:href="112DC1D8.png"  transform="matrix(1 0 0 1 65.4583 128.1912)">
	</image>
	
		<image style="overflow:visible;opacity:0.6;" width="21" height="55" xlink:href="112DC1DB.png"  transform="matrix(1 0 0 1 79.4583 74.1912)">
	</image>
	
		<image style="overflow:visible;" width="34" height="103" xlink:href="112DC1D9.png"  transform="matrix(1 0 0 1 71.4583 65.1912)">
	</image>
</g>
</svg>
