<?xml version="1.0" encoding="utf-8"?>
<!-- Generator: Adobe Illustrator 22.0.1, SVG Export Plug-In . SVG Version: 6.00 Build 0)  -->
<svg version="1.1" id="Calque_1" xmlns="http://www.w3.org/2000/svg" xmlns:xlink="http://www.w3.org/1999/xlink" x="0px" y="0px"
	 viewBox="0 0 100 100" style="enable-background:new 0 0 100 100;" xml:space="preserve">
<style type="text/css">
	.st0{fill:none;}
	.st1{fill:#BE1E2D;}
</style>
<g>
	<path class="st0" d="M64.1,25c-9.9-1.7-17.8-3.2-24.5-4.1c-6.5,2.7-12.7,21.3-13.3,26.5c-0.6,5.2-1.8,30.2,26.5,34.1
		c4.7,0.7,9,0.6,12.8,0V25.2C65.1,25.1,64.6,25.1,64.1,25z"/>
	<path class="st1" d="M65.6,81.5c1.1-0.2,2.1-0.3,3.1-0.6V25.6c-1-0.1-2-0.2-3.1-0.3V81.5z"/>
	<path d="M68.7,80.9c-1,0.2-2,0.4-3.1,0.6c-3.8,0.6-8.1,0.6-12.8,0c-4.2-0.6-7.7-1.6-10.7-3c3.7-2.6,15.2-11.4,15.2-22.7
		c0-10.6,0-25.9,0-32c2.1,0.4,4.4,0.8,6.8,1.2c0.5,0.1,1,0.2,1.6,0.2c1.1,0.2,2.1,0.3,3.1,0.3c28.2,2.3,24.8-23,24.8-23
		C79,26.5,59.8,0.9,30.2,6.1c-28.6,5-23.6,26-23.6,26C14.7,21.1,22.5,19,36,20.4c-2.6,1-22.7,9.2-23.7,36.6c0,0-0.1,24.4,20.8,34.6
		s38.3,3.7,44.2,0c5.9-3.7,18.6-13.9,15.5-28C92.8,63.5,85.6,77.1,68.7,80.9z M26.3,47.4c0.6-5.2,6.8-23.8,13.3-26.5
		c0.8,0.1,1.6,0.2,2.5,0.4l0.6,1.2v44.9l-2,6.5l-2.8,2.4C25,67.4,25.8,51.4,26.3,47.4z"/>
</g>
</svg>
