<?xml version="1.0" encoding="utf-8"?>
<!-- Generator: Adobe Illustrator 22.0.1, SVG Export Plug-In . SVG Version: 6.00 Build 0)  -->
<svg version="1.1" id="Calque_1" xmlns="http://www.w3.org/2000/svg" xmlns:xlink="http://www.w3.org/1999/xlink" x="0px" y="0px"
	 viewBox="0 0 422 325.9" style="enable-background:new 0 0 422 325.9;" xml:space="preserve">
<style type="text/css">
	.st0{opacity:0.84;fill:url(#SVGID_1_);}
	.st1{fill:url(#SVGID_2_);}
	.st2{fill:#F4A07F;}
	.st3{fill:#B3B2B2;}
	.st4{fill:#585857;}
	.st5{fill:#973624;}
	.st6{fill:#B05344;}
	.st7{fill:#959094;}
	.st8{fill:#E5E5E4;}
	.st9{fill:#DA2929;}
	.st10{fill:#102032;}
	.st11{fill:#CDCCCC;}
	.st12{fill:#B62533;}
	.st13{fill:#B4B2B5;}
</style>
<linearGradient id="SVGID_1_" gradientUnits="userSpaceOnUse" x1="-1460.557" y1="269.886" x2="-1304.2028" y2="113.5319" gradientTransform="matrix(-1 0 0 1 -1154 0)">
	<stop  offset="0" style="stop-color:#BCBEC0"/>
	<stop  offset="1" style="stop-color:#BCBEC0"/>
</linearGradient>
<path class="st0" d="M324.4,46c0,0,63.4,55.1,36.8,144.8c-26.6,89.8-115.9,105.8-167.3,106.9c-51.5,1.1-124.6-8.9-153.3-54.8
	S324.4,46,324.4,46z"/>
<linearGradient id="SVGID_2_" gradientUnits="userSpaceOnUse" x1="-1453.5413" y1="261.3906" x2="-1257.1312" y2="64.9805" gradientTransform="matrix(-1 0 0 1 -1154 0)">
	<stop  offset="0" style="stop-color:#BCBEC0"/>
	<stop  offset="0.6261" style="stop-color:#8C8D90"/>
	<stop  offset="1" style="stop-color:#6D6E71"/>
</linearGradient>
<path class="st1" d="M272.8,11.3c0,0-52-21.7-103.5,54.3S27.5,114.2,11.5,162.2S58.3,282.9,139,288.6c80.6,5.7,173.8-7.4,209.9-90.3
	S336.8,33.6,272.8,11.3z"/>
<g>
	<path class="st2" d="M211.8,173c-2.2-2.8-6.7-3.6-10-4c-2.8-0.3-5.5,0.1-8.4-0.7c-1.9-0.6-4.3-0.7-6.3-0.4
		c-2.8,0.4-7.8,1.2-8.5,4.7c0,0.1,0,0.2,0,0.3c-0.5,1.9,1.2,4.5,2.3,5.9c2.8,3.7,6.5,6,11,7.1c3.9,1,7.5,0.3,11.4,0.3
		c3.2,0,7.7-0.7,9.7-3.5C215.3,179.6,214,175.9,211.8,173"/>
	<path class="st3" d="M347.3,268.3c-1.9-4.1-3.8-8.1-6-12c-2.4-4.1-5.6-7.4-8.8-10.9c-6.9-7.2-14.2-14-20.5-21.8
		c-4-4.9-8.7-9.4-14.2-12.6c-2.7-1.6-5.9-2.9-9-3.5c-0.7-0.1-1.6-0.3-2.4-0.4c-0.2-0.2-0.5-0.2-0.7,0c-0.8,0-1.5,0.2-2,0.7
		c-0.1,0.1-0.2,0.2-0.2,0.3c-0.4,0.1-0.8,0.3-1.1,0.5c-1.5,0.8-2.8,2.2-4,3.3c-3.4,3.1-6.3,6.7-8.7,10.7c-4,6.8-5.2,15.2-0.1,21.9
		c11.1,14.7,30.6,19.8,45.5,29.3c6.9,4.4,16.1,10.1,24.7,8.4c2.8-0.5,6.6-1.9,8.2-4.6C349.6,274.6,348.7,271.3,347.3,268.3"/>
	<path class="st4" d="M309,155.4c-0.2-0.4-0.6-0.5-1-0.3c-9.6-0.1-19.5,1-29,2.2c-8.2,1-16.3,3-24.4,4.4c0,0,0,0,0,0
		c-3.9-0.1-7.9,1-11.8,1.6c-4.7,0.7-9.5,1.2-14.2,1.9c-4.3,0.6-8.6,1-12.9,1.6c-2.4,0.4-5.1,0.9-7.6,0.9c-1.4,0-2.8,0.7-4.2,0.8
		c0,0-0.1,0-0.1,0c-0.3,0-0.5,0.2-0.5,0.5c-0.5,5.5,2.8,14,7.7,16.9c0.1,0.1,0.3,0.2,0.5,0.2c9.1-0.1,18.2-1.1,27.3-1.1
		c4.7,0,9.7-1.2,14.4-1.9c6.1-0.8,12.2-2.2,18.4-2.9c10.4-1.2,21.3-1.2,31-5.8C308.7,171.5,312,161.5,309,155.4"/>
	<path class="st5" d="M214,202.6c-1.9-4.4-6-8.4-9.2-12c-3.6-4-6.6-8.6-10.4-12.6c-1.5-1.6-5.5-8.1-8.2-7.3
		c-1.4,0.4-2.6,1.9-3.7,2.8c-1.1,0.9-2.2,1.8-3.1,2.6c-0.3,0.2-0.3,0.6-0.1,0.9c0,0.2,0.2,0.5,0.5,0.5c0.8,0.1,2.9,3.7,3.6,4.5
		c1.6,2,3.3,3.9,4.9,5.8c3.5,4.2,7.3,8.3,11.1,12.2c2.9,3,5.4,6.5,9.8,7C211.3,207.3,215.1,205.1,214,202.6"/>
	<path class="st2" d="M197.5,188.6c1-1.1,1.4-2.6,0.7-4.3c-0.7-1.8-2.3-1.9-3.8-1.7c0.4-0.7,0.4-1.5-0.1-2.4
		c-0.7-1.2-2.3-1.2-3.9-1.1c0.2-0.8-0.1-1.7-0.9-2.4c-1.8-1.6-5.3-0.5-7.3-0.2c-2.2,0.3-3.7,1.4-4.4,3.3c-0.5,1.5,0.2,2.8,1.3,3.7
		c2.6,3.9,6.4,8.3,10.5,10.4c3.1,1.6,7.5-0.2,9.4-2.7C200.1,189.7,199,188.9,197.5,188.6"/>
	<path class="st5" d="M194.9,167c-1.8-2.2-5.6-2.7-8.3-2.5c-4,0.3-7.7,2.1-11.1,4c-3.8,2.2-5.5,7-3.2,9.9c2,4.3,11,2.8,14.3,1.5
		C190.7,178.4,199.4,172.4,194.9,167"/>
	<path class="st6" d="M193.2,165.5c-1.8-2.2-5.6-2.7-8.3-2.5c-4,0.3-7.7,2.1-11.1,4c-3.8,2.2-5.5,7-3.2,9.9c2,4.3,11,2.8,14.3,1.5
		C189,176.9,197.7,170.9,193.2,165.5"/>
	<path class="st7" d="M185.3,168.1C185.3,168.1,185.3,168.1,185.3,168.1c-0.1-0.2-0.1-0.3-0.2-0.4c-1.2-3.1-3.2-6-4.8-8.9
		c-2.1-3.7-4.3-7.4-6.3-11.2c-4.3-8.2-8-16.7-11.8-25.1c-3.8-8.5-7-17.2-10.5-25.8c-1.6-3.9-3.2-7.8-4.3-11.9
		c-0.8-3-1.2-6.7-2.5-9.7c-0.1-0.5-0.2-1-0.4-1.4c0-0.1,0.1-0.2,0.1-0.3c0.2-0.9-1-1.2-1.3-0.4c0,0.1,0,0.1-0.1,0.2
		c-0.1,0.1-0.1,0.2-0.1,0.3c-1.4,3.7-2.5,7.3-3.3,11.2c-0.7,3.7-0.2,7.7-0.1,11.4c0.2,9,3.4,18.4,7,26.5c7.6,17.5,18.5,33.1,29,48.9
		c0.1,0.1,0.2,0.2,0.3,0.3c0.1,0.2,0.3,0.3,0.6,0.3h0c0,0,0,0,0,0c3,0,6.1-0.9,8-3.4C185.2,168.9,185.4,168.5,185.3,168.1"/>
	<path class="st8" d="M316.2,221c-1-2.1-3.6-3.3-5.6-4.4c-3.7-2.1-7.7-3.8-11.4-5.8c-7-3.7-14-7.9-20.1-12.9
		c-0.2-0.2-0.4-0.2-0.6-0.2c-0.1,0-0.2-0.1-0.3-0.1c-1.4,0-2.8,0.1-4.1,0.6c-0.4,0.1-0.7,0.4-1.1,0.6c-7.8,1.1-15.5,3.6-22.8,6
		c-4.7,1.5-9.3,3.2-13.9,5c-2,0.7-4,1.5-5.9,2.4c-2.3,1-5.3,3.1-7.9,2.8c-4.6-0.5-9.5-0.2-14.1-0.1c-4.8,0.1-9.9,0.6-14.6,1.3
		c-10.1,1.6-20.2,3.3-29.8,6.9c-9.6,3.6-19.4,8.1-29.8,8.6c-3.5,0.2-8.1,0.1-11.2,2.1c-3,1.9-3.9,4.4-4.4,7.8c-0.3,2.7-0.5,5.4-1,8
		c-0.5,2.4-1.4,4.7-2,7c-1.2,4.5-3,8.9-3.5,13.6c-0.7,7.3,4.3,13.4,11.9,12.9c7.7-0.5,11.4-9.8,13.8-15.8c1.6-4,2.8-8.1,4.4-12.2
		c1.7-4.5,5-4.2,8.9-4.5c2.7-0.2,5.5-0.3,8.2-0.6c9.7-0.8,19.4-2.1,29.1-2.5c4.1-0.2,8.2-0.7,12.3-0.4c5.3,0.4,10.6,0.8,16,1.1
		c4.4,0.3,8.3,0.5,12.6-0.8c4.7-1.5,10.4-2,15.3-1.7c4.7,0.2,9.6-0.6,14.3-0.8c4.9-0.2,9.8-1,14.6-1.8c9.6-1.5,19.1-3.3,27.9-7.7
		c3.9-1.9,7.4-4.2,10.6-7C313.3,227.3,317.4,223.5,316.2,221"/>
	<path class="st9" d="M328.2,212.7c-2.7-3-7.5-4.4-11.1-6.1c-5.9-2.7-11.8-5.4-17.7-8.2c-5.4-2.5-10.4-5.7-15.7-8.5
		c-2.7-1.4-4-2-5.9-0.3c-2.2,1.6-4.1,3.9-5.7,6.1c-2,2.7-1.4,3.8,0.6,6.2c5.1,6.1,12.4,10.7,19.3,14.5c1.7,0.9,3.3,1.8,5,2.5
		c1.6,0.7,3.6,2.1,5.3,2.5c3.5,0.8,6.6,3,10,3.9c0.8,0.2,2.1-0.6,2.7-0.9c1.9-0.8,3.8-2,5.6-3.1c2.9-1.7,5.7-4.8,7.6-7.6
		C328.6,213.5,328.5,213,328.2,212.7"/>
	<path class="st4" d="M413.5,130.5c-2.4-3.1-4-4.7-8-5.3c-3.6-0.5-8,0.9-11.3,2c-2,0.6-4.1,0.8-6.1,1.5c-2.3,0.8-4.6,1.6-7,2.3
		c-4.6,1.4-9,3.3-13.5,5c-4.4,1.6-8.7,3.4-13.1,5.1c-3.6,1.4-7.6,2.5-10.9,4.6c-0.2,0.2-0.3,0.4-0.3,0.6c-1,1.9-0.4,5.2-0.9,7.1
		c-0.9,3.1-0.3,7.9,0.5,11c0.4,1.8,0.9,5.2,3.6,4.8c4.1-0.6,8-2.8,11.8-4.3c17.6-7.1,35.4-13.8,53-20.7c2.1-0.8,6-1.9,5.8-4.9
		C416.7,136.1,415.4,133,413.5,130.5"/>
	<path class="st8" d="M345.5,199.6c1.1-2.6,2.2-5.1,3.2-7.7l-1.7-0.3L345.5,199.6z"/>
	<path class="st8" d="M337.3,207.9l3.1-7.6l1.9-9.7l-10.2-1.9l0,0l-8.5-0.1l4.6-3l-3.2-4.5l7.9,3.1l10.2,1.9l1.9-9.9l0-8l3.2,4.5
		l4.6-3l-3,7.4l-1.9,9.9l2.6,0.5c0-0.1,0-0.1,0.1-0.2c3.5-9.4,8.9-18.4,10.9-28.3c0.3-1.7,0.2-4,0.8-5.6c0.2-0.6,0.3-1.9-0.2-2.4
		c-0.7-0.7-1.6-0.6-2.5-0.6c-2.8,0.1-5.6,0.3-8.3,0.4c-7.4,0.4-14.8,0.4-22.2,0.5c-3.7,0-7.4,0.1-11,0c-0.5,0-1,0-1.4-0.1
		c-0.7-0.1-1.3-0.2-2-0.3c-2.7-0.5-1.7-1.5-4.4-1.4c-0.2-0.5-4.4,1-5.3,1.5c-1.9,1-2.7,2.4-4.1,4c-1.3,1.6-2.7,3.1-4,4.8
		c-3.1,4.2-6.4,8-9.9,11.8c-3.2,3.4-7,6.3-10.1,9.8c-2.2,2.4-6.2,5.8-5.3,9.4c0.7,2.9,5.3,3.6,7.6,4.2c4.7,1.2,9.1,3.7,13.5,5.7
		c4.7,2.1,8.8,5.1,13.1,7.8c4.1,2.5,8.6,4.5,13.1,6.3c4.1,1.6,8.8,2.7,13.2,2.4c3.4-0.2,6.2-3,8-5.6c1.1-1.6,2.1-3.5,2.9-5.4
		l-0.9-1.3L337.3,207.9z"/>
	<path class="st9" d="M347.9,187l-0.9,4.6l1.7,0.3c0.6-1.5,1.2-2.9,1.8-4.4L347.9,187z"/>
	<polygon class="st9" points="333,184.2 325,181.1 328.2,185.6 323.6,188.6 332.1,188.7 332.1,188.7 342.2,190.7 343.1,186.1 	"/>
	<path class="st9" d="M342.2,190.7l-1.9,9.7l-3.1,7.6l4.6-3l0.9,1.3c0.8-1.9,1.5-3.9,2.3-5.8c0.1-0.3,0.2-0.5,0.3-0.8l1.5-8
		L342.2,190.7z"/>
	<polygon class="st9" points="352.8,169.8 348.2,172.8 345,168.3 345,176.3 343.1,186.1 347.9,187 349.8,177.2 	"/>
	
		<rect x="342.7" y="186.4" transform="matrix(0.1882 -0.9821 0.9821 0.1882 94.6384 492.2248)" class="st9" width="4.6" height="4.9"/>
	<path class="st9" d="M365.9,107.4c-1.9-3.4-3.6-6.9-5.9-10c-2.5-3.4-5.5-6.3-8.3-9.4c-1.4-1.5-1.9-3.4-3.4-4.7
		c-0.9-0.8-2.2-1.1-3.4-1.3c-1.7-0.3-3.4,0-5,0.5c-4.9,0.6-9.9,2.9-13.8,5.4c-5.3,3.3-10.3,7.6-14.3,12.4c-4,4.8-7.2,10.3-8.8,16.4
		c-1.6,5.9-1.9,11.8-1.3,17.8c0.6,5.9,3.8,12.2,8.2,16.1c2.3,2.1,4.8,4,7.6,5.4c2.8,1.3,5.9,2.3,8.9,3.1c6,1.5,12.4,0.6,18.3-0.8
		c6.1-1.4,12.5-4.1,17.3-8.3c2.5-2.2,4.9-4.6,6.7-7.5c2.1-3.3,2.8-7,3.1-10.8C372.6,123.1,370.1,114.8,365.9,107.4"/>
	<path class="st2" d="M355.5,124.2c-0.9-2.2-2-4.3-3.5-6.1c-1.4-1.7-4.4-2.2-6.4-2.8c-5.4-1.4-11.5-1.4-17.1-1.2
		c-5.1,0.3-10.8,0.9-15.5,3.1c-1.8,0.8-3.1,2.1-3.8,4c-0.8,2.3-1.9,4.4-2.4,6.8c-0.1,0.6,0.5,0.9,0.8,0.6c1.2,0.6,2.9,0.8,4.2,1.1
		c2.3,0.4,4.5,1.1,6.9,1.2c2.8,0.1,5.4-0.7,8-1.7c3.5-1.3,6.5,0.9,9.5,2.4c4.9,2.3,9.8,0.8,14.7-0.4c1.2-0.3,5-0.8,5.6-1.9
		C357.4,127.9,356,125.6,355.5,124.2"/>
	<path class="st5" d="M326.8,120.5c-1.8-0.4-3.2-1.2-4.8-2.2c-1.8-1.1-4.8,0.3-6.6,1.3c-0.1,0-0.2,0.1-0.3,0.1
		c-0.2,0-0.2,0.2-0.3,0.3c-0.2,0.3,0.1,0.8,0.5,0.6c0.2-0.1,0.4-0.2,0.6-0.2c1.8-0.3,3.5-0.8,5.1,0.5c0.7,0.6,1.9,1.8,2.9,2
		c1.1,0.2,3.9,0.7,3.9-1.2C327.7,121.2,327.2,120.6,326.8,120.5"/>
	<path class="st10" d="M322.3,127c-0.6-1.6-2.4-2.4-4-2.7c-2.1-0.4-3.7,0.4-5.8,0.8c-0.5,0.1-0.2,0.9,0.2,0.7c0,0,0.1,0,0.1,0
		c0,0,0,0,0.1,0c2.6,0,5.6,0.2,7.8,1.8C321.2,128,322.7,128.2,322.3,127"/>
	<path class="st5" d="M336.3,122c-0.3,1.9,2.5,1.8,3.7,1.7c1-0.1,2.3-1.1,3.1-1.6c1.7-1.1,3.4-0.3,5.1,0.2c0.2,0.1,0.4,0.2,0.6,0.3
		c0.4,0.2,0.7-0.2,0.6-0.6c0-0.1-0.1-0.3-0.2-0.3c-0.1,0-0.2-0.1-0.3-0.1c-1.7-1.2-4.4-3-6.4-2.1c-1.7,0.8-3.2,1.4-5.1,1.5
		C336.9,121.1,336.3,121.6,336.3,122"/>
	<path class="st10" d="M342.4,128.9c2.4-1.3,5.4-1.1,8-0.7c0,0,0,0,0.1,0c0,0,0.1,0,0.1,0c0.4,0.2,0.8-0.5,0.3-0.7
		c-1.9-0.7-3.4-1.6-5.6-1.5c-1.6,0.1-3.5,0.6-4.3,2.1C340.4,129.2,341.8,129.2,342.4,128.9"/>
	<path class="st4" d="M415.3,132.7c-1-2.8-2.7-5.4-4-8.1c-3.1-6.3-6.8-12.1-10.6-18c-1.8-2.8-3.6-5.7-5.4-8.5
		c-1.1-1.7-2.3-4.1-4.1-5.1c-2.1-1.1-5.5-0.1-7.6,0.6c-3,1-5.7,2.8-8.7,3.7c-0.5,0.2-0.7,0.7-0.5,1.2c0,0,0,0,0,0
		c0.7,3.9,3.6,7.9,5.5,11.3c0.4,0.8,0.9,1.5,1.4,2.3c0.5,1.1,1,2.3,1.5,3.4c2.9,6.1,6.1,11.8,9.8,17.5c3,4.6,6.6,9.5,12.4,10.5
		c3.9,0.7,10.5,0.3,11.8-4.5C417.3,137.2,416,134.5,415.3,132.7"/>
	<path class="st2" d="M388.5,88c-0.7-2.6-1.7-4.5-4-6c-2.2-1.5-5.4-0.7-7.8,0c-1.7,0.5-3.5,1-5.2,1.6c-0.8,0.2-2.2,1.8-2.7,1.9
		c-0.3,0-0.7,0.3-0.7,0.7c0,0,0,0,0,0c-0.1,0.1-0.1,0.2-0.1,0.4c0.9,5.3,5.6,10.6,10.4,12.9c2.9,1.4,10.4,1,11.3-3.1
		C390.3,93.3,389.3,90.7,388.5,88"/>
	<path class="st11" d="M326.3,257.4c-8.7-0.9-16.7,0-25.1,2.1c-4.2,1.1-8.2,2.3-12.3,3.8c-1.4,0.5-3.8,1.3-5.1,2.4
		c-0.3,0.1-0.5,0.2-0.8,0.3c-4.3,1.7-9.9,2.2-14.5,2.3c-6.2,0.1-15.6,0.4-16.5,8.5c-1.1,9.3,5.5,14,11.1,20.1
		c5.8,6.4,9.4,14,16.7,19c5.1,3.4,13.4,6.9,17.1-0.3c1.4-2.7-0.7-5.5-2.1-7.6c-1.6-2.3-9-12.8-3.6-14.5c4.2-1.4,9-1.9,13.4-2.7
		c5.3-1,10.6-1.5,15.9-2.5c4.9-1,9.7-2,14.5-3.1c4.1-0.9,8.2-2,11.5-4.8C358.3,270.4,334.1,258.2,326.3,257.4"/>
	<path class="st9" d="M169.4,221.3c-1.9,0.6-3.7,1.2-5.6,1.9c-9.6,3.6-19.4,8.1-29.8,8.6c-3.5,0.2-8.1,0.1-11.2,2.1
		c-3,1.9-4,4.4-4.4,7.8c-0.3,2.7-0.5,5.4-1,8c-0.5,2.4-1.4,4.7-2,7c-1.2,4.5-3,8.9-3.5,13.6c-0.7,7.3,4.3,13.4,11.9,12.9
		c7.7-0.5,11.4-9.8,13.8-15.8c1.6-4,2.8-8.2,4.4-12.2c1.7-4.4,5-4.2,8.9-4.5c2.7-0.2,5.5-0.3,8.2-0.6c5-0.4,9.9-1,14.9-1.4
		c-9.1-3.7-11.4-15.8-7.1-23.9C167.6,223.7,168.8,222.5,169.4,221.3"/>
	<path class="st9" d="M314.7,287.5c0.3-4.4-1.5-9-3.7-12.6c-3.6-5.6-9.9-9.8-16-12.2c-0.7-0.3-1.3-0.5-2-0.7c-1.3,0.4-2.7,0.9-4,1.4
		c-1.4,0.5-3.8,1.3-5.1,2.4c-0.3,0.1-0.5,0.2-0.8,0.3c-4.3,1.7-9.9,2.2-14.5,2.3c-6.2,0.1-15.6,0.4-16.5,8.5
		c-1.1,9.3,5.5,14,11.1,20.1c5.8,6.4,9.4,14,16.7,19c5.1,3.4,13.4,6.9,17.1-0.3c1.4-2.7-0.7-5.5-2.1-7.6c-1.6-2.3-9-12.8-3.6-14.5
		c4.2-1.4,9-1.9,13.4-2.7c3.3-0.6,6.6-1,9.9-1.5C314.6,288.7,314.6,288.1,314.7,287.5"/>
	<path class="st12" d="M279.9,316c4.8,3.3,12.6,6.6,16.5,0.7c-0.7-2.7-2.3-5.5-3.6-7.6c-2-3.3-5-5.9-8-8.3c-3.7-2.9-8-5.1-10.6-9.2
		c-3.9-6.2-4.9-14.8-12-18.5c-1.9-1-4.8-1.7-7.4-1.6c-1.4,1.2-2.5,2.9-2.7,5.3c-1.1,9.3,5.5,14,11.1,20.1
		C269,303.3,272.6,311,279.9,316"/>
	<path class="st5" d="M402.7,89.1c-2.4-3.6-6.7-4.2-10.8-5.3c-5.3-1.5-10.6-2.9-16-4.1c-2.5-0.5-5-1.1-7.5-1.6
		c-1.1-0.2-5.2-0.4-5.6-1.1c-0.2-0.3-0.5-0.3-0.7-0.2c-0.3,0-0.6,0.2-0.7,0.5c-0.3,1.3-0.6,2.6-0.9,4c-0.3,1.4-1.1,3.1-0.7,4.5
		c0.6,2.7,8.2,3.2,10.3,3.8c5.2,1.5,10.7,2,16,3.3c4.6,1.2,10.1,2.9,14.9,2.5C403.7,95.3,403.9,90.9,402.7,89.1"/>
	<path class="st5" d="M368.2,81.8c-0.4-3.5-3.3-12.2-8-12c-3.6-0.7-7,3-7.2,7.5c-0.2,3.9,0.1,8.1,1.6,11.7c1.1,2.5,3.3,5.6,6.1,6.2
		C367.5,96.7,368.8,86.2,368.2,81.8"/>
	<path class="st6" d="M366.1,81c-0.4-3.5-3.3-12.2-8-12c-3.6-0.7-7,3-7.2,7.5c-0.2,3.9,0.1,8.1,1.6,11.7c1.1,2.5,3.3,5.6,6.1,6.2
		C365.4,95.9,366.6,85.4,366.1,81"/>
	<path class="st7" d="M357.7,85.4c1.3-2.8,0.6-6-0.8-8.7c0,0,0,0,0,0l0,0c-0.1-0.3-0.4-0.4-0.6-0.4c-0.1-0.1-0.2-0.2-0.4-0.2
		c-18.9-1.9-37.8-4.3-56.8-2.8c-8.8,0.7-18.7,2.3-26.7,6.3c-3.3,1.7-7.2,3-10.1,5.4c-3.1,2.5-5.8,5.1-8.3,8.1
		c-0.1,0.1-0.2,0.1-0.2,0.3c0,0.1-0.1,0.1-0.1,0.2c-0.6,0.7,0.3,1.6,0.9,1c0.1-0.1,0.1-0.1,0.2-0.2c0.5,0,1-0.1,1.4-0.3
		c3.3-0.2,6.7-1.6,9.7-2.3c4-1,8.4-1.4,12.5-1.8c9.2-0.9,18.4-2.2,27.7-2.8c9.2-0.6,18.5-1.4,27.7-1.3c4.3,0,8.5,0.2,12.8,0.3
		c3.3,0.1,6.8,0.6,10.1,0.1c0.1,0,0.2,0,0.3,0c0,0,0.1,0,0.1,0C357.5,86.2,357.7,85.8,357.7,85.4"/>
	<path class="st2" d="M386,81.8c-3.4-3.9-10.5-5.2-15.3-6c-3.6-0.6-3.9,3.8-3.1,6.5c0.1,2.8,1.2,5.3,3.9,4.5
		c0.4,2.4,2.8,2.3,4.9,1.4c0.6,1,1.6,2.1,2.9,1.7c0.6-0.2,1.7-0.9,1.8-0.8c0.8,0.7,1.8,1,2.7,1.2C387.4,90.8,387.6,83.6,386,81.8"/>
	<path class="st13" d="M354.9,79.5c1,0.2,2.2,0.6,3.3,0.6c-0.2-1.2-0.7-2.3-1.2-3.4c0,0,0,0,0,0l0,0c-0.1-0.3-0.4-0.4-0.6-0.4
		c-0.1-0.1-0.2-0.2-0.4-0.2c-18.9-1.9-37.8-4.3-56.8-2.8c-8.8,0.7-18.7,2.3-26.7,6.3c-3.3,1.7-7.2,3-10.1,5.4
		c-3.1,2.5-5.8,5.1-8.3,8.1c-0.1,0.1-0.2,0.1-0.2,0.3c0,0.1-0.1,0.1-0.1,0.2c-0.6,0.7,0.3,1.6,0.9,1c0.1-0.1,0.1-0.1,0.2-0.2
		c0.4,0,0.8-0.1,1.1-0.2c1.7-1.5,3.4-3,5.1-4.4c3.4-2.7,7.7-5.1,11.8-6.4c1.6-0.5,3.2-1.3,4.8-1.9c2.3-0.9,4.8-1.1,7.1-1.9
		c4.5-1.4,9.5-2,14.2-2.4c10.7-0.9,21.5-1.9,32.2-0.3c5.3,0.8,10.6,1.2,15.9,1.8C349.6,78.9,352.3,79.1,354.9,79.5"/>
	<path class="st13" d="M178.3,169.3c-1.6-2.1-3-4.4-4.5-6.6c-3-4.4-5.8-9-9-13.2c-6.4-8.7-10.6-18.7-14.8-28.6
		c-1.9-4.3-3.7-9-4.5-13.7c-0.4-2.4-1.4-4.7-1.7-7.2c-0.2-1.7-0.2-3.5-0.5-5.1c-0.7-4.2-0.6-9.2,0.2-13.4c0.4-2.2,0.9-4.4,1.5-6.6
		c-0.1-0.4-0.2-0.8-0.4-1.1c0-0.1,0.1-0.2,0.1-0.3c0.2-0.9-1-1.2-1.3-0.4c0,0.1,0,0.1-0.1,0.2c-0.1,0.1-0.1,0.2-0.1,0.3
		c-1.4,3.7-2.5,7.3-3.3,11.2c-0.7,3.7-0.2,7.7-0.1,11.4c0.2,9,3.4,18.4,7,26.5c7.6,17.5,18.5,33.1,29,48.9c0.1,0.1,0.2,0.2,0.3,0.3
		c0.1,0.2,0.3,0.3,0.6,0.3h0c0,0,0,0,0,0c1.2,0,2.4-0.2,3.6-0.5C179.8,171,178.9,170.1,178.3,169.3"/>
</g>
</svg>
