<?xml version="1.0" encoding="utf-8"?>
<!-- Generator: Adobe Illustrator 22.0.1, SVG Export Plug-In . SVG Version: 6.00 Build 0)  -->
<svg version="1.1" id="Calque_1" xmlns="http://www.w3.org/2000/svg" xmlns:xlink="http://www.w3.org/1999/xlink" x="0px" y="0px"
	 viewBox="0 0 27 27" style="enable-background:new 0 0 27 27;" xml:space="preserve">
<style type="text/css">
	.st0{fill:#FEFEFE;}
</style>
<g>
	<path class="st0" d="M22.8,7c0.3,0.4,0.9-0.4,1.1,0.2c0.2,0.4-0.2,0.8-0.5,1c-1.3,0.9-1.3,2.3-1.6,3.7c-1.5,8.8-10.6,12.8-18.2,8.7
		c-0.2-0.1-0.6-0.2-0.5-0.6c0.1-0.3,0.5-0.2,0.7-0.2c1.6-0.1,3.2-0.2,4.6-1.2C7.2,18,6.1,17.2,5.6,16c-0.1-0.3-0.5-0.6,0-1
		c0.5-0.3-0.1-0.3-0.2-0.4c-0.9-0.8-1.4-1.7-1.6-2.9c-0.1-0.8-0.1-0.9,0.9-1C4,9.5,3.5,8.1,4.1,6.6c0.4-0.8,0.6-1.1,1.4-0.2
		c1.7,1.9,3.8,3,6.3,3.5c0.7,0.2,1.2,0.2,1.2-0.9c0-1.8,1.3-2.9,2.9-3.7c1.5-0.7,3-0.7,4.3,0.4c0.7,0.6,1.3,0.2,2,0
		c0.4-0.1,0.9-0.7,1.3-0.3c0.4,0.4-0.3,0.8-0.4,1.2C22.9,6.8,22.8,6.9,22.8,7z"/>
</g>
</svg>
