<?xml version="1.0" encoding="utf-8"?>
<!-- Generator: Adobe Illustrator 22.0.1, SVG Export Plug-In . SVG Version: 6.00 Build 0)  -->
<svg version="1.1" id="Calque_1" xmlns="http://www.w3.org/2000/svg" xmlns:xlink="http://www.w3.org/1999/xlink" x="0px" y="0px"
	 viewBox="0 0 100 100" style="enable-background:new 0 0 100 100;" xml:space="preserve">
<style type="text/css">
	.st0{fill:#FFFFFF;stroke:#333333;stroke-miterlimit:10;}
</style>
<path class="st0" d="M50,3C24,3,2.8,24.2,2.8,50.2S24,97.5,50,97.5s47.2-21.2,47.2-47.2S76,3,50,3z M81.5,31.9
	c-0.1,0.2-2.3,3.7-5.8,6.3c0,1.5-0.2,5.9-0.9,8.9c-1.2,5-4.4,14.2-12.5,20.9c-7.6,6.2-16.9,8.3-23.4,8.3c-0.6,0-1.3,0-1.9-0.1
	c-6-0.4-13.3-2.7-18.1-5.6c-0.4-0.3-0.6-0.8-0.4-1.2c0.2-0.5,0.6-0.8,1.1-0.7c0.1,0,8.4,0.8,15.5-3.5c-2.9-0.7-7.2-2.8-9.8-9
	c-0.1-0.4-0.1-0.8,0.2-1.1c0.2-0.3,0.6-0.4,1-0.4c0,0,0.4,0.1,1.1,0.1c-3.1-1.8-6.7-5.2-6.8-11.9c0-0.4,0.2-0.7,0.5-0.9
	s0.7-0.2,1-0.1c0.4,0.2,1.2,0.6,2.2,0.9c-2.6-3.1-5.8-8.8-1.6-15.6c0.2-0.3,0.5-0.5,0.8-0.5c0.4,0,0.7,0.1,0.9,0.4
	c0.1,0.1,8.8,11.4,23.7,12.5C47,33.7,51.1,28.5,55.8,26c4.9-2.6,11.5-2.9,15.6,2.2c1-0.2,3.4-0.7,7.1-2.7c0.4-0.2,0.8-0.2,1.2,0.1
	c0.3,0.3,0.5,0.7,0.3,1.1c0,0.1-0.8,2.4-2.8,4.7c0.9-0.2,1.8-0.6,2.9-1c0.4-0.2,0.9-0.1,1.2,0.3C81.7,31,81.7,31.5,81.5,31.9z"/>
</svg>
