<?xml version="1.0" encoding="utf-8"?>
<!-- Generator: Adobe Illustrator 22.0.1, SVG Export Plug-In . SVG Version: 6.00 Build 0)  -->
<svg version="1.1" id="Calque_1" xmlns="http://www.w3.org/2000/svg" xmlns:xlink="http://www.w3.org/1999/xlink" x="0px" y="0px"
	 viewBox="0 0 1071 350.9" style="enable-background:new 0 0 1071 350.9;" xml:space="preserve">
<style type="text/css">
	.st0{fill:url(#SVGID_1_);}
	.st1{fill:url(#SVGID_2_);}
</style>
<linearGradient id="SVGID_1_" gradientUnits="userSpaceOnUse" x1="23.0829" y1="-23.1922" x2="281.5541" y2="235.2791">
	<stop  offset="0" style="stop-color:#BCBEC0"/>
	<stop  offset="0.6261" style="stop-color:#8C8D90"/>
	<stop  offset="1" style="stop-color:#6D6E71"/>
</linearGradient>
<path class="st0" d="M0,302.1c0,0,71.6,28,101.5-31.7s96.8-37.8,124-52.7s-18.6-75.5,59.6-95.8s138.8-5.3,146.7-43.9
	c7.9-38.7-22.8-78.1-62.4-78.1S0-0.1,0-0.1V302.1z"/>
<linearGradient id="SVGID_2_" gradientUnits="userSpaceOnUse" x1="987.8619" y1="398.3082" x2="838.2302" y2="139.1384">
	<stop  offset="0" style="stop-color:#BCBEC0"/>
	<stop  offset="0.6261" style="stop-color:#8C8D90"/>
	<stop  offset="1" style="stop-color:#6D6E71"/>
</linearGradient>
<path class="st1" d="M798.2,350.9c0,0-40.6-13.1-39.7-42.6c1-29.5,51.6-39.2,50.4-73.4s-17.7-81.1,8.1-80.9
	c25.9,0.1,72.3,8.9,82.5-11.3c10.1-20.2,31.2-52.7,67.2-31.6c36,21.1,21.1,72.9,48.3,79.9c27.2,7,54.9,14.9,54.9,42.2
	s0,117.8,0,117.8H798.2z"/>
</svg>
